<svg width="40" height="40" viewBox="0 0 40 40" fill="none" xmlns="http://www.w3.org/2000/svg">
<path d="M28.8285 0H10.7C4.79993 0 0 4.79993 0 10.7V28.8288C0 34.7286 4.79993 39.5285 10.7 39.5285H28.8288C34.7286 39.5285 39.5285 34.7286 39.5285 28.8288V10.7C39.5285 4.79993 34.7286 0 28.8285 0V0ZM37.2112 28.8288C37.2112 33.4508 33.4508 37.2112 28.8285 37.2112H10.7C6.07772 37.2112 2.31733 33.4508 2.31733 28.8288V10.7C2.31733 6.07772 6.07772 2.31733 10.7 2.31733H28.8288C33.4508 2.31733 37.2112 6.07772 37.2112 10.7V28.8288Z" fill="#001E64"/>
<path d="M19.7623 8.95605C13.8025 8.95605 8.95404 13.8045 8.95404 19.7643C8.95404 25.7241 13.8025 30.5726 19.7623 30.5726C25.7221 30.5726 30.5706 25.7241 30.5706 19.7643C30.5706 13.8045 25.7221 8.95605 19.7623 8.95605ZM19.7623 28.2553C15.0806 28.2553 11.2714 24.4463 11.2714 19.7643C11.2714 15.0826 15.0806 11.2734 19.7623 11.2734C24.4443 11.2734 28.2533 15.0826 28.2533 19.7643C28.2533 24.4463 24.4443 28.2553 19.7623 28.2553Z" fill="#001E64"/>
<path d="M30.8304 5.11743C29.0692 5.11743 27.6367 6.55023 27.6367 8.31115C27.6367 10.0724 29.0692 11.5052 30.8304 11.5052C32.5917 11.5052 34.0245 10.0724 34.0245 8.31115C34.0245 6.54993 32.5917 5.11743 30.8304 5.11743ZM30.8304 9.18754C30.3473 9.18754 29.954 8.79428 29.954 8.31115C29.954 7.82772 30.3473 7.43476 30.8304 7.43476C31.3139 7.43476 31.7071 7.82772 31.7071 8.31115C31.7071 8.79428 31.3139 9.18754 30.8304 9.18754Z" fill="#001E64"/>
</svg>
