<svg width="40" height="40" viewBox="0 0 40 40" fill="none" xmlns="http://www.w3.org/2000/svg">
<path d="M33.9141 5.6145C30.2933 1.99374 25.4804 0 20.3596 0C20.3593 0 20.3581 0 20.3578 0C17.8251 0.000301579 15.357 0.49067 13.0225 1.45783C10.6877 2.425 8.59592 3.82342 6.80484 5.6145C3.18438 9.23496 1.19064 14.0488 1.19064 19.169C1.19064 22.2225 1.9274 25.257 3.32341 27.9606L0.101335 37.1654C-0.125754 37.8147 0.0349877 38.5204 0.521737 39.0069C0.86222 39.3477 1.31037 39.5286 1.77118 39.5286C1.96871 39.5286 2.16836 39.4954 2.36318 39.4273L11.568 36.2055C14.2716 37.6015 17.3061 38.3383 20.3596 38.3383C25.4798 38.3383 30.2933 36.3442 33.9141 32.7238C37.5346 29.1033 39.5286 24.2895 39.5286 19.1693C39.5286 14.0488 37.5349 9.23496 33.9141 5.6145ZM32.2747 31.0844C29.0921 34.2672 24.8604 36.0197 20.3596 36.0197C17.6062 36.0197 14.8709 35.3388 12.4492 34.0498C12.0101 33.8164 11.4911 33.7763 11.0251 33.9394L2.66235 36.8663L5.58947 28.5035C5.75263 28.0369 5.71222 27.5179 5.4788 27.0791C4.19015 24.658 3.50888 21.9227 3.50888 19.169C3.50888 14.6682 5.26166 10.4365 8.44422 7.25389C11.6265 4.07162 15.8576 2.31884 20.3581 2.31824H20.3596C24.8607 2.31824 29.0921 4.07102 32.2747 7.25389C35.4576 10.4365 37.2104 14.6679 37.2104 19.169C37.2104 23.6701 35.4576 27.9018 32.2747 31.0844Z" fill="#C4C4C4"/>
<path d="M27.4838 20.8813C26.602 19.9995 25.1671 19.9995 24.2852 20.8813L23.3208 21.8458C20.9259 20.5408 18.988 18.6029 17.6828 16.208L18.6472 15.2436C19.5293 14.3618 19.5293 12.9269 18.6472 12.045L16.0482 9.44603C15.1664 8.56421 13.7315 8.56421 12.8496 9.44603L10.7706 11.5251C9.57962 12.7161 9.52021 14.7635 10.6032 17.2904C11.5435 19.4844 13.2643 21.8958 15.4487 24.0802C17.633 26.2645 20.0444 27.9853 22.2384 28.9256C23.439 29.4401 24.531 29.6968 25.4747 29.6968C26.5172 29.6968 27.3785 29.3834 28.0037 28.7583L30.0828 26.6789V26.6792C30.5101 26.2518 30.7454 25.684 30.7454 25.0799C30.7454 24.4755 30.5101 23.9077 30.0828 23.4806L27.4838 20.8813ZM26.3643 27.1189C26.0244 27.4588 24.9792 27.5779 23.1519 26.795C21.2224 25.9681 19.0688 24.4216 17.088 22.4408C15.1073 20.46 13.5611 18.3067 12.7341 16.3772C11.9509 14.55 12.0701 13.5044 12.4099 13.1645L14.4492 11.1252L16.968 13.6443L15.7608 14.8518C15.2149 15.3977 15.0831 16.2255 15.4333 16.9119C17.0205 20.0242 19.5046 22.5083 22.6169 24.0955C23.3036 24.4457 24.1314 24.3142 24.6773 23.768L25.8845 22.5608L28.4036 25.0799L26.3643 27.1189Z" fill="#C4C4C4"/>
</svg>
