<svg width="180" height="165" viewBox="0 0 180 165" fill="none" xmlns="http://www.w3.org/2000/svg">
<g opacity="0.15">
<path d="M95.4112 0.349411C92.0214 0.843521 79.4328 2.07172 73.7503 2.4529C70.5012 2.67877 62.948 2.72112 60.8522 2.5376C59.7832 2.43877 59.5441 2.36818 58.883 1.93054C57.8703 1.2388 57.2374 1.0694 56.0418 1.13998C54.6493 1.2388 53.6085 1.76114 52.441 2.93288C51.3017 4.0905 50.8798 4.93753 50.7813 6.2081C50.711 7.29514 50.922 9.94919 51.3158 12.5468C51.7378 15.3561 51.9065 17.5725 51.8081 18.7301C51.7378 19.4219 51.4564 20.6078 51.0345 21.9348C50.6547 23.0924 50.0218 25.1253 49.6279 26.4523C48.348 30.6875 47.2649 33.0592 45.7177 34.9933C44.3674 36.7015 42.1873 38.2403 40.2744 38.8473C38.8959 39.285 37.827 39.3838 33.4526 39.5108C30.5129 39.5814 28.614 39.7085 27.7982 39.8497C25.9275 40.1885 23.227 41.1343 21.1031 42.1931C16.8271 44.3249 14.0984 46.5695 10.9759 50.5647C10.3007 51.4259 8.86607 53.2329 7.78302 54.5881C4.46356 58.7386 3.92907 59.4445 3.43678 60.4751C2.56472 62.2397 2.48032 62.7479 2.43813 66.8279C2.41 70.7101 2.29747 71.7407 1.43948 75.7924C0.398627 80.6628 0.131382 82.3569 0.0329239 84.8274C-0.0374037 86.465 -0.00927267 86.9309 0.257972 88.145C0.412693 88.9214 0.60961 89.8532 0.665872 90.2202C0.750265 90.7567 0.933117 91.0532 1.56606 91.7449C2.78976 93.0578 4.70267 96.5872 5.11057 98.2671C5.16684 98.4789 5.46221 98.9447 5.75759 99.2836C6.54526 100.173 6.8125 101.373 7.07975 105.058C7.29073 108.065 7.48765 109.25 7.99401 110.634C8.92233 113.133 11.0181 116.027 13.0857 117.65C14.1125 118.455 15.8566 119.415 16.3067 119.415C16.4614 119.415 16.6162 119.612 16.7287 119.937C16.9537 120.629 17.3194 121.222 18.6697 123.001C20.3154 125.175 20.5545 125.965 20.7936 130.215C20.878 131.683 20.9765 133.024 21.0327 133.165C21.2015 133.744 25.0977 138.473 27.6435 141.198C29.1767 142.835 29.4298 142.977 31.2302 143.09C32.4539 143.174 32.468 143.174 33.2697 143.866C33.7198 144.247 34.7466 144.981 35.5343 145.504C41.2308 149.202 42.3139 150.049 42.3139 150.798C42.3139 151.362 42.6092 151.998 43.2562 152.816C44.0017 153.748 44.2971 154.327 44.4096 155.089L44.494 155.725L45.4786 156.035C46.4913 156.374 47.6025 156.854 51.5268 158.703C54.9025 160.284 56.6185 160.779 58.7705 160.779C60.2474 160.779 60.7537 160.637 61.8227 159.946C62.962 159.212 63.2011 159.155 63.8482 159.452L64.3967 159.692L64.7906 159.325C65.1422 158.986 65.2969 158.943 66.0986 158.943C68.0116 158.943 69.2071 159.579 70.7403 161.428C72.6954 163.786 73.2299 164.139 75.4381 164.619C77.0557 164.957 80.6283 165.084 84.7214 164.943L87.8158 164.844L89.2224 163.461C90.9383 161.781 91.5713 161.499 93.7374 161.386C96.1004 161.259 98.801 161.809 100.967 162.868C101.544 163.15 102.078 163.362 102.149 163.334C102.233 163.32 104.132 163.249 106.368 163.179C110.743 163.037 111.615 162.939 113.331 162.402C114.737 161.95 115.764 161.259 117.424 159.649C118.985 158.125 119.801 157.56 121.151 157.08C122.994 156.402 124.245 156.19 126.285 156.205C127.987 156.205 128.296 156.247 129.281 156.586L130.392 156.967L131.953 156.063C134.119 154.807 136.426 153.72 138.592 152.929C140.885 152.111 141.616 151.729 142.418 150.995C143.248 150.233 143.417 149.866 143.642 148.327C143.754 147.607 143.895 146.887 143.951 146.732C144.204 146.012 145.147 145.01 146.652 143.81C147.552 143.09 149.015 141.819 149.887 140.972C151.758 139.165 152.63 138.671 153.685 138.812C155.766 139.109 155.372 139.25 157.651 137.414C162.518 133.476 164.107 131.542 164.965 128.45C165.275 127.335 165.359 125.259 165.176 123.735C165.092 123.071 165.12 122.916 165.443 122.436C165.64 122.125 166.259 120.897 166.808 119.697C167.849 117.424 168.721 115.956 169.438 115.278C169.663 115.067 170.507 114.558 171.309 114.149C172.926 113.344 172.842 113.429 174.347 110.803C176.682 106.709 177.765 103.335 177.765 100.131C177.765 98.4224 177.568 97.6318 176.668 95.8531L175.866 94.2437V92.8178C175.88 90.9826 176.105 90.2626 177.905 86.5215C179.439 83.331 179.846 82.1169 179.973 80.2958C180.086 78.5593 179.846 77.317 179.242 76.5688C178.426 75.5806 177.948 74.3241 177.357 71.6983C176.752 68.9172 176.611 68.5219 175.838 67.3643C175.528 66.9126 174.361 64.6679 173.236 62.3809C170.479 56.8046 167.891 52.5129 164.571 48.0236C163.727 46.8801 163.418 46.5554 163.08 46.4848C162.447 46.3577 161.308 45.6942 159.93 44.6354C158.382 43.4496 157.637 43.1108 155.963 42.8284C154.107 42.5178 153.516 42.2637 152.545 41.3743C152.025 40.8943 151.279 40.4002 150.562 40.0614C149.479 39.5532 148.762 39.3273 144.655 38.1697L142.854 37.6615L141.982 36.7862C140.716 35.5015 139.703 34.9933 135.653 33.5675C132.811 32.5792 131.967 32.1981 130.842 31.4357L129.97 30.8569L129.886 29.9675C129.759 28.7252 129.225 26.9606 128.296 24.7018C126.215 19.6337 125.807 18.3913 125.582 16.3867C125.427 15.0738 125.624 13.4362 126.018 12.5891C126.299 12.0103 126.426 11.8974 128.128 10.8527C128.662 10.528 128.887 10.2598 129.253 9.49744C129.675 8.63628 129.731 8.38216 129.773 7.1116L129.829 5.67163L128.479 5.29047C127.748 5.0787 125.722 4.42931 124.006 3.85051C118.014 1.81761 116.003 1.25291 113.063 0.74469C111.39 0.448227 107.929 0.391754 104.343 0.603516C102.191 0.730576 102.149 0.716461 101.08 0.349411C99.7152 -0.11647 98.5197 -0.11647 95.4112 0.349411ZM113.19 2.52347C115.272 2.94699 116.847 3.48346 121.151 5.20576C123.247 6.03868 125.469 6.89984 126.116 7.1116L127.284 7.49277L126.608 8.21275C124.4 10.5845 123.247 13.422 123.359 16.1749C123.402 17.3608 123.444 17.5161 124.358 19.5066C125.427 21.8501 125.483 22.0477 126.369 26.0994C127.256 30.2075 127.776 31.704 128.789 33.1016C129.14 33.5816 129.351 33.7086 130.097 33.9204C131.475 34.3157 134.373 35.2333 135.709 35.7274C137.087 36.2215 139.507 37.2521 139.507 37.3509C139.507 37.3791 139.408 37.605 139.282 37.8309C139.169 38.0709 139.085 38.2826 139.113 38.3109C139.141 38.3391 139.76 38.5085 140.519 38.7062C141.265 38.9179 142.756 39.3979 143.825 39.8073C147.088 41.0214 149.648 41.8826 150.576 42.0661C151.322 42.2214 151.462 42.292 151.462 42.532C151.462 42.7014 151.659 43.0261 151.884 43.2802C152.194 43.6331 152.475 43.7602 153.136 43.8872C155.133 44.2543 156.821 45.0872 160.014 47.3177C161.196 48.1365 162.293 48.8565 162.433 48.8989C162.588 48.9412 163.024 49.5624 163.432 50.2824C163.84 51.0023 165.697 53.8682 167.567 56.6775C171.379 62.3668 172.715 64.8232 173.587 67.7455C174.094 69.4396 174.53 71.656 174.53 72.5595V73.0818L172.954 72.376C163.474 68.1549 156.568 63.6232 141.546 51.7788C139.071 49.8306 135.653 47.1765 133.951 45.8919C130.955 43.6331 130.547 43.2237 130.913 42.8567C131.236 42.532 131.011 42.3625 129.534 41.7837C128.704 41.459 127.734 40.9932 127.396 40.7532L126.777 40.3014L127.382 40.1602C129.661 39.6661 134.401 42.1084 141.251 47.3036C144.233 49.5624 146.652 51.2565 147.918 51.9482C148.185 52.1035 148.354 52.3294 148.41 52.6258C148.466 52.9082 148.748 53.2893 149.17 53.6705C149.535 53.9952 150.182 54.6164 150.618 55.054C151.04 55.4775 151.715 56.014 152.095 56.2399C153.375 56.974 155.147 58.1598 157.862 60.0374C161.899 62.8326 163.291 63.7079 165.542 64.8373C167.356 65.7549 170.676 67.0114 170.83 66.842C170.859 66.8137 170.676 66.5455 170.423 66.249C169.93 65.6843 168.636 64.9926 167.778 64.8514C167.37 64.7808 167.103 64.5973 166.583 63.9903C165.739 63.0021 164.698 62.3103 163.643 62.0421C163.109 61.9009 162.56 61.6186 162.096 61.2515C160.647 60.0939 156.948 57.2987 154.416 55.4634C148.044 50.8047 144.289 47.713 141.87 45.0731C141.56 44.7343 141.223 44.4519 141.124 44.4519C140.772 44.4519 138.156 43.0402 136.412 41.9108C134.077 40.3861 132.108 39.4403 130.561 39.0591C129.422 38.7767 129.253 38.692 128.676 38.0991C127.748 37.125 126.777 36.4615 124.063 34.9368C120.743 33.0592 119.351 31.8875 118.577 30.3064C118.436 29.9817 117.916 29.4875 117.199 28.9511C114.217 26.7347 112.388 24.3771 107.508 16.429C104.877 12.1374 102.556 9.15862 101.867 9.15862C101.276 9.15862 100.531 8.76334 99.7715 8.04335C98.9697 7.28101 98.3368 7.08337 97.2819 7.25278C96.1004 7.43629 95.3268 7.78923 93.7655 8.84804C91.8245 10.1468 91.079 10.4574 89.8412 10.4574C88.7019 10.4574 88.2237 10.2598 86.789 9.18684C85.4528 8.19864 84.3838 7.64806 83.3711 7.46454C82.274 7.25278 81.641 7.42218 80.4736 8.22687C79.8969 8.62216 79.1092 9.13039 78.7295 9.37038C78.1528 9.72331 77.8574 10.0762 77.0275 11.4174C76.4087 12.3915 75.6351 13.4079 75.0865 13.9585C74.4958 14.5373 74.0597 15.1161 73.905 15.5114C72.8782 18.1514 71.5561 19.6901 67.4208 22.9936C64.8749 25.0265 63.7638 26.0288 62.948 27.017C62.5119 27.5394 61.9071 28.0617 61.3445 28.3864C59.4738 29.4734 57.364 31.1675 54.5368 33.8074C49.6983 38.3532 48.9387 38.9179 44.916 40.9932C42.131 42.419 40.2744 43.5766 39.557 44.3249L39.1491 44.7625L39.7117 44.6637C40.851 44.466 41.9904 44.1272 43.1578 43.6472C45.5208 42.6731 47.2087 41.6002 51.8081 38.0991C53.51 36.8003 55.3807 35.4309 55.9574 35.0357C56.5341 34.6404 57.9688 33.4404 59.1222 32.3816C63.9185 27.977 67.041 25.6335 70.262 23.9959C71.1763 23.5442 71.4154 23.3465 71.6967 22.8383C72.7376 20.9324 74.3692 18.589 75.8179 16.8808C76.3243 16.2737 76.9713 15.2432 77.562 14.0856C79.1796 10.9092 80.558 9.76566 83.0335 9.61037L84.201 9.53978L85.059 10.2598C86.7187 11.6574 87.9143 12.1232 89.785 12.1374C91.5291 12.1515 91.9792 11.9821 94.075 10.5703C95.2565 9.77977 95.9738 9.44096 96.4942 9.44096C96.8599 9.44096 96.7333 9.83624 96.0723 10.8245C95.805 11.2197 95.6222 11.6009 95.6644 11.6433C95.8472 11.8268 96.6067 11.375 96.9725 10.8668C97.1834 10.5845 97.3803 10.3304 97.3944 10.3021C97.4788 10.2033 97.8726 10.5986 97.8726 10.7962C97.8726 10.8951 97.6054 11.2762 97.2819 11.6574L96.7052 12.335L97.4647 12.448C97.8867 12.5044 98.6322 12.5044 99.1245 12.4621C100.109 12.3633 100.053 12.2927 99.7574 13.2526C99.6449 13.5914 99.7293 13.5914 100.601 13.3373C101.347 13.1115 101.614 13.1538 101.825 13.5632C102.022 13.9303 101.755 14.2408 101.248 14.2408C100.419 14.2408 100.686 15.1161 101.67 15.6102C102.331 15.949 103.203 16.0338 103.654 15.7937C104.005 15.5961 104.005 15.822 103.64 16.1467C103.33 16.429 103.274 16.8526 103.513 17.0078C103.597 17.0502 103.907 16.9796 104.202 16.8526C105.271 16.3726 105.482 16.9796 104.54 17.8549C104.033 18.3349 103.921 18.8149 104.287 18.956C104.526 19.0549 105.187 18.7443 105.454 18.4196C105.679 18.1514 106.171 18.1231 106.171 18.3631C106.171 18.4619 105.932 18.6737 105.637 18.829C105.229 19.0549 105.13 19.196 105.159 19.4642C105.201 19.9019 105.215 19.916 105.96 19.9866C106.678 20.0713 106.79 20.3254 106.242 20.6783C105.538 21.1301 105.96 21.6242 106.72 21.243C107.268 20.9466 107.986 20.9466 108.098 21.243C108.14 21.3701 108.014 21.6383 107.733 21.9207C107.015 22.6689 107.184 22.923 108.408 22.923C109.364 22.923 109.603 23.1912 109.153 23.77C108.844 24.1653 108.745 24.7441 108.956 24.8853C109.027 24.9277 109.378 24.8571 109.758 24.7441C110.546 24.5182 111.024 24.5888 110.883 24.9418C110.489 25.9723 110.827 26.5229 111.854 26.5229C112.43 26.5229 112.487 26.5511 112.571 26.9606C112.627 27.2005 113.176 28.1464 113.795 29.064C114.667 30.3628 114.934 30.871 114.99 31.3652C115.061 31.9016 115.131 32.0145 115.567 32.2545C115.834 32.3957 116.228 32.6781 116.453 32.8898C116.805 33.2286 116.833 33.3133 116.763 34.0898C116.636 35.4451 116.861 35.9392 118.211 37.4215C119.041 38.3109 119.745 39.285 120.42 40.4285C120.954 41.3602 121.84 42.8708 122.375 43.7743C124.035 46.626 125.385 48.1365 130.505 52.8517C132.98 55.1387 135.132 57.2845 136.482 58.781C138.845 61.435 140.111 62.5785 141.419 63.2562C142.249 63.6938 142.348 63.7926 142.784 64.6679L143.234 65.6279H143.979C144.725 65.6279 144.725 65.6279 144.978 66.2349C145.119 66.5596 145.287 67.0396 145.344 67.2937C145.442 67.7455 145.442 67.7455 146.314 67.7455C147.636 67.7455 147.833 68.0843 147.032 68.9172C146.764 69.1996 146.539 69.4819 146.539 69.5666C146.539 69.7925 147.003 69.8631 147.524 69.7219C148.326 69.496 149.071 69.5384 149.071 69.8207C149.071 69.9478 149.141 70.2725 149.24 70.5266C149.395 70.9642 149.451 70.9925 150.112 70.9925C150.759 70.9925 150.843 71.0348 151.448 71.6983C151.94 72.2348 152.236 72.4324 152.63 72.503C153.052 72.5595 153.15 72.6301 153.08 72.8136C152.798 73.4912 152.7 73.8442 152.784 73.9147C152.939 74.07 153.685 73.9712 154.149 73.7312C154.613 73.5053 154.613 73.5053 154.936 73.9006C155.372 74.4512 155.344 74.663 154.768 75.1288C154.5 75.3406 154.275 75.5806 154.275 75.6653C154.275 75.7641 154.782 75.7924 155.682 75.7641C156.456 75.7359 157.088 75.7359 157.088 75.7641C157.088 75.7924 156.92 76.0323 156.709 76.3006C156.399 76.7241 156.371 76.8229 156.54 76.9359C156.948 77.2041 157.426 77.2323 158.157 77.0347C159.297 76.71 159.564 77.1617 158.706 77.9664C158.439 78.2346 158.214 78.5452 158.214 78.6723C158.214 78.8699 158.312 78.8982 158.889 78.8276C159.494 78.7429 159.606 78.7852 160.253 79.237C160.788 79.6323 161.097 79.7452 161.547 79.7452H162.124L162.068 80.2675C161.969 81.0722 162.11 81.1852 162.898 80.9169C163.46 80.7334 163.657 80.7193 164.192 80.8746C164.937 81.0863 165.823 81.9757 166.076 82.7522L166.259 83.2745H167.159C168.13 83.2745 168.214 83.3592 167.891 84.051C167.806 84.2486 167.778 84.4463 167.82 84.5027C167.975 84.658 168.721 84.5733 169.143 84.3616C169.354 84.2486 169.705 84.1216 169.93 84.0651C170.31 83.9804 170.31 83.9804 170.31 84.6439V85.3215H171.759C173.039 85.3215 173.278 85.3639 173.897 85.6886L174.6 86.0556L174.558 87.0297C174.544 87.5662 174.361 88.7803 174.178 89.7403C173.7 92.0696 173.63 92.9308 173.812 93.919C173.897 94.3848 173.939 94.7943 173.897 94.8225C173.77 94.9495 172.026 94.1166 170.985 93.439C170.423 93.0578 169.143 92.0696 168.13 91.2508C165.95 89.4297 164.965 88.752 163.727 88.1732C163.01 87.8485 162.419 87.3968 161.238 86.2533C160.394 85.4204 158.143 83.4581 156.245 81.8628C152.489 78.7146 149.577 75.8912 148.368 74.2394C147.946 73.6465 146.736 72.376 145.625 71.3595C137.34 63.6938 130.884 57.0728 126.229 51.44C121.024 45.1578 116.481 38.2403 113.246 31.704C112.67 30.5463 112.177 29.6287 112.149 29.657C112.051 29.7558 112.501 31.7604 112.866 32.8757C113.373 34.3863 114.428 36.5603 116.552 40.372C120.096 46.7813 122.009 49.5765 125.202 53.0211C126.004 53.8964 126.819 54.9128 127.03 55.3081C127.537 56.2116 142.052 70.8654 144.725 73.1524C145.78 74.0559 146.792 75.03 146.975 75.3265C148.494 77.8535 151.054 80.3381 156.245 84.3333C158.706 86.225 160.844 88.0321 161.927 89.1473C162.335 89.5708 162.771 89.9097 162.912 89.9097C163.038 89.9097 163.573 90.1355 164.107 90.4038C164.628 90.672 165.134 90.8979 165.232 90.8979C165.331 90.8979 165.753 91.2367 166.161 91.6602C166.569 92.0696 167.441 92.7331 168.088 93.1284C169.565 94.0178 170.521 94.8648 170.887 95.5707C171.084 95.966 171.252 96.1213 171.492 96.1213C172.012 96.1213 173.489 96.9401 173.981 97.5048C175.852 99.6365 175.669 103.999 173.517 108.135C172.757 109.617 171.703 110.944 171.309 110.944C170.957 110.944 170.634 110.535 170.521 109.956C170.451 109.561 170.254 109.335 169.565 108.827C166.54 106.61 162.251 102.502 156.034 95.8389C154.177 93.8625 151.476 91.0532 150.028 89.6132C148.565 88.1732 147.383 86.9309 147.383 86.8603C147.383 86.5639 146.047 84.6863 145.006 83.5569C143.375 81.764 142.46 80.6346 140.899 78.5452C139.521 76.6959 138.142 75.0724 135.484 72.1924C132.432 68.8607 130.884 66.7573 129.689 64.2585C129.098 63.0162 128.859 62.6915 128.001 61.8868C126.637 60.6162 125.427 59.0633 122.923 55.3364C121.742 53.5858 120.406 51.68 119.941 51.1012C119.323 50.3106 118.83 49.4353 118.113 47.8401C117.578 46.6401 115.651 42.659 113.837 39.0026C111.193 33.6945 110.532 32.2545 110.532 31.8028C110.532 31.1675 110.25 30.6875 109.828 30.5746C109.575 30.504 109.547 30.5746 109.547 31.1957C109.547 31.9298 109.955 33.3416 110.349 33.991C110.475 34.1886 110.771 34.5557 110.982 34.7957C111.305 35.1486 111.488 35.6286 111.868 37.125C113.288 42.7861 114.906 46.1036 120.828 55.4775C122.178 57.6092 123.669 60.0374 124.161 60.8986C125.103 62.5785 125.554 63.0868 126.088 63.0868C126.383 63.0868 126.426 63.1432 126.426 63.595C126.426 63.9903 126.524 64.1879 126.876 64.4703C128.367 65.7408 128.592 66.009 129.281 67.4349C129.998 68.9031 130.73 69.8066 131.306 69.9478C131.56 70.0184 131.602 70.1031 131.531 70.4419C131.363 71.303 131.813 71.8395 132.685 71.8395C132.994 71.8395 133.036 71.9101 133.05 72.4042C133.065 72.7148 133.079 73.0395 133.093 73.1242C133.093 73.1948 133.515 73.6042 134.021 73.9995C135.16 74.9312 135.892 75.8912 136.201 76.8653L136.44 77.6276H137.101H137.777L137.762 78.2205C137.748 78.7993 137.777 78.8276 138.649 79.4205C139.76 80.1405 139.872 80.3099 139.577 80.8605C139.155 81.7075 139.338 82.004 140.294 82.004C140.744 82.004 140.801 82.0604 141.054 82.6251C141.349 83.3169 141.757 83.6133 142.263 83.5145C142.685 83.4439 142.685 83.4863 142.249 84.0086C142.052 84.2345 141.926 84.4745 141.968 84.5451C141.996 84.6016 142.376 84.8274 142.812 85.0251C143.642 85.4345 143.909 85.9003 143.6 86.3945C143.515 86.5356 143.445 86.6768 143.445 86.6909C143.445 86.7191 143.923 86.705 144.514 86.6909C145.513 86.6486 145.583 86.6627 145.484 86.9027C145.414 87.0438 145.358 87.4109 145.358 87.7215C145.344 88.2862 145.344 88.2862 146.455 88.8791C147.876 89.6555 148.185 89.9379 148.298 90.672C148.424 91.3779 148.551 91.5473 149.226 91.8861C149.577 92.0696 149.887 92.4084 150.182 92.9449C150.548 93.5943 150.745 93.7778 151.293 94.0178C152.362 94.4554 152.377 94.4696 152.334 95.1189C152.292 95.6413 152.334 95.7119 152.742 95.966C152.995 96.1213 153.389 96.2907 153.6 96.333C154.008 96.4319 154.078 96.5307 153.867 96.7707C153.685 96.9683 153.572 97.5895 153.685 97.773C153.741 97.8718 154.191 97.9565 154.697 97.9848C155.752 98.0271 155.893 98.2389 155.387 98.9306C154.88 99.6224 155.091 99.8483 156.16 99.7635C157.609 99.6365 157.862 100.004 157.004 100.949C156.357 101.684 156.484 101.811 157.961 101.909C158.636 101.952 159.128 102.051 159.156 102.149C159.184 102.234 159.015 102.531 158.776 102.813C157.946 103.745 158.411 104.196 159.831 103.858C161.238 103.505 161.997 103.928 161.308 104.662C161.139 104.846 161.027 105.1 161.055 105.255C161.097 105.467 161.238 105.509 162.082 105.509C163.038 105.509 163.066 105.523 163.109 105.89C163.137 106.102 163.052 106.455 162.94 106.695C162.813 106.921 162.715 107.246 162.715 107.415C162.715 107.825 163.432 107.796 164.093 107.345C164.698 106.921 164.853 106.907 165.134 107.232C165.359 107.514 165.331 107.697 164.839 108.728C164.585 109.265 164.557 109.448 164.684 109.617C164.979 109.956 165.246 109.843 165.893 109.152C166.372 108.615 166.54 108.516 166.681 108.657C166.766 108.742 166.962 108.827 167.103 108.827C167.427 108.827 167.413 108.954 167.075 109.392C166.709 109.857 166.723 110.196 167.117 110.394C167.286 110.493 167.652 110.761 167.933 111.001C168.2 111.241 168.552 111.509 168.707 111.594C168.96 111.735 168.946 111.777 168.566 112.751C168.045 114.036 167.103 115.518 165.95 116.86C165.12 117.834 165.021 118.017 164.726 119.161C164.557 119.852 164.248 120.671 164.023 120.996C163.657 121.547 162.841 122.238 162.56 122.238C162.49 122.238 161.533 121.01 160.422 119.514C158.143 116.45 157.44 115.617 156.118 114.417C155.344 113.726 155.021 113.274 154.233 111.806C152.883 109.321 151.856 107.81 150.618 106.498C149.901 105.749 149.254 104.846 148.663 103.815C147.468 101.74 145.864 99.3965 142.924 95.4719L140.491 92.2108V91.4484C140.477 90.7002 140.463 90.6579 139.071 88.9214C137.411 86.8321 136.553 85.5615 133.951 81.2981C131.728 77.67 129.056 73.5759 127.495 71.416C126.608 70.1878 126.426 69.8348 126.426 69.3972C126.426 68.6913 126.383 68.6208 122.262 61.7315C116.341 51.8211 113.528 46.6966 113.682 46.1036C113.823 45.5248 113.485 43.986 112.993 42.9696C112.74 42.419 112.093 41.3743 111.572 40.6402C111.038 39.9061 110.349 38.7767 110.011 38.1273C109.491 37.1391 109.406 36.8286 109.406 36.1227C109.406 35.3745 109.308 35.0921 108.562 33.6239C107.817 32.1416 105.834 29.2052 105.581 29.2052C105.426 29.2052 105.299 30.0381 105.398 30.504C105.454 30.744 105.693 31.3652 105.918 31.8734C106.143 32.3816 106.875 34.1745 107.536 35.8403C108.956 39.4544 109.378 40.3014 110.686 42.292C111.952 44.2119 112.219 44.8331 112.219 45.8213C112.219 47.4871 114.259 51.5529 119.534 60.3339C122.923 66.009 124.442 68.7055 124.864 69.8772C125.174 70.696 125.399 71.0913 127.199 73.9571C127.804 74.9312 128.592 76.2582 128.929 76.9217C129.59 78.1782 138.044 91.2367 143.009 98.6624C150.098 109.279 155.668 116.803 161.097 123.128L162.883 125.217L162.799 125.951C162.419 128.831 161.083 131.217 158.622 133.391C156.779 135.043 155.429 136.073 155.161 136.073C154.782 136.073 154.346 135.551 154.036 134.732C153.882 134.337 153.052 133.08 152.18 131.923C149.381 128.182 147.06 124.582 142.953 117.65C137.523 108.46 136.454 106.695 134.921 104.267C133.529 102.093 133.318 101.684 133.318 101.161C133.318 100.102 132.924 98.7895 132.418 98.1824C130.744 96.1072 129.337 93.6225 125.666 86.1686C124.091 82.9781 122.347 79.6323 121.798 78.7288C121.123 77.5994 120.659 76.6253 120.377 75.7218C119.801 73.9571 119.21 72.5312 117.072 67.8867C114.653 62.635 113.893 60.828 112.248 56.3669C111.474 54.2776 110.208 50.9741 109.434 49.04C106.382 41.3602 106.171 40.7391 105.679 37.605C105.426 35.9674 104.835 34.598 104.188 34.1321L103.766 33.8357L103.836 34.3016C103.893 34.5698 104.047 35.6003 104.216 36.6168C104.694 39.7085 105.538 43.3931 106.439 46.2872C107.184 48.6871 110.588 58.1457 111.966 61.6044C113.049 64.3573 114.793 67.9008 115.862 69.5384L116.706 70.8513L116.467 71.4866C116.2 72.2207 116.298 72.4889 116.945 72.8277C117.171 72.9407 117.382 73.0536 117.41 73.0677C117.424 73.0818 117.283 73.3218 117.072 73.59L116.692 74.0983L117.058 74.2394C117.48 74.3947 117.705 74.8747 117.705 75.5947C117.705 76.1312 118.113 76.6394 118.549 76.6394C118.704 76.6394 118.83 76.7241 118.83 76.8229C118.83 76.9359 118.704 77.1335 118.549 77.2747C118.394 77.4158 118.268 77.6841 118.268 77.8817C118.268 78.2205 118.296 78.2205 118.901 78.1499C119.505 78.0652 119.534 78.0652 119.759 78.5735L120.012 79.0817L119.477 79.5052C118.985 79.9005 118.971 79.9287 119.196 80.1828C119.365 80.3805 119.632 80.4511 120.096 80.4511C120.56 80.4511 120.87 80.5358 121.137 80.7475C121.657 81.1569 121.573 81.5804 120.884 81.9334C120.195 82.3004 119.97 82.6251 120.181 82.9498C120.349 83.2039 120.659 83.2322 121.657 83.0486C122.108 82.9781 122.178 83.0063 122.248 83.2886C122.375 83.7545 122.178 83.9945 121.503 84.2486C120.785 84.5168 120.701 84.6721 121.039 85.0815C121.292 85.378 121.306 85.378 122.037 85.1662C122.445 85.0392 122.825 84.9827 122.867 85.0251C122.909 85.0674 122.839 85.2651 122.712 85.4486C122.431 85.8862 122.417 86.4368 122.698 86.6627C122.811 86.7615 123.162 86.8321 123.472 86.8321C123.978 86.818 124.035 86.8603 124.035 87.1709C124.035 87.4956 123.598 88.0744 123.359 88.0744C123.148 88.0744 122.614 88.6532 122.698 88.7803C122.74 88.8509 123.317 89.0767 123.964 89.2744C125.005 89.5991 125.174 89.6979 125.258 90.0085C125.329 90.3191 125.258 90.4602 124.907 90.7567C124.386 91.1802 124.358 91.3355 124.71 91.632C125.103 91.9849 125.525 92.0555 125.779 91.8155C126.004 91.5755 126.285 91.632 126.285 91.9284C126.285 92.0131 126.116 92.2531 125.919 92.4649C125.441 92.9731 125.554 93.2978 126.215 93.3119C127.424 93.3543 127.579 93.6931 126.763 94.5966C126.369 95.0484 126.299 95.1895 126.44 95.3589C126.651 95.6131 127.087 95.6131 127.832 95.3448C128.156 95.2319 128.451 95.1331 128.465 95.1331C128.493 95.1331 128.535 95.2742 128.578 95.4295C128.634 95.6554 128.55 95.8531 128.24 96.1354C127.832 96.5166 127.692 97.1518 127.973 97.3213C128.043 97.3636 128.296 97.3071 128.521 97.1801C129.14 96.8695 129.422 96.9118 129.703 97.406L129.956 97.8577L129.379 98.3801C128.986 98.7471 128.845 98.973 128.901 99.1424C129.014 99.4389 129.52 99.6506 130.069 99.6506C130.533 99.6506 130.856 99.9753 130.73 100.286C130.687 100.413 130.42 100.611 130.139 100.724C129.267 101.091 129.801 101.768 130.983 101.768H131.517L131.419 102.7C131.306 103.787 131.377 103.886 132.291 103.886C132.882 103.886 132.882 103.9 132.811 104.309C132.685 104.945 132.84 105.34 133.529 106.159C133.88 106.568 134.162 107.02 134.162 107.175C134.162 107.316 133.965 107.641 133.726 107.881C133.332 108.276 133.304 108.333 133.529 108.488C133.712 108.629 133.88 108.629 134.345 108.46C135.006 108.234 135.371 108.305 135.498 108.686C135.61 109.053 135.498 109.222 134.921 109.462C134.612 109.589 134.443 109.759 134.443 109.928C134.443 110.253 134.64 110.352 135.695 110.577C136.117 110.662 136.482 110.803 136.511 110.888C136.539 110.959 136.342 111.142 136.061 111.269C135.695 111.453 135.568 111.594 135.568 111.862C135.568 112.257 135.639 112.271 136.848 112.229C137.481 112.201 137.65 112.229 137.734 112.441C137.875 112.808 137.72 113.147 137.312 113.33C137.017 113.457 136.961 113.57 137.003 113.951L137.045 114.403L137.931 114.375C138.761 114.333 138.803 114.347 138.803 114.657C138.803 114.841 138.649 115.137 138.452 115.321C138.255 115.504 138.1 115.73 138.1 115.829C138.1 116.041 138.944 116.309 139.633 116.309C140.238 116.309 140.632 116.648 140.632 117.17C140.632 117.495 140.533 117.622 140.154 117.777C139.9 117.89 139.633 118.045 139.577 118.144C139.408 118.427 139.872 118.737 140.66 118.864C141.954 119.076 142.137 119.838 141.026 120.361C140.308 120.7 140.154 121.052 140.576 121.405C140.758 121.561 140.955 121.532 141.771 121.25C142.671 120.94 142.756 120.925 142.967 121.137C143.276 121.448 143.135 121.758 142.573 121.998C141.996 122.238 141.729 122.563 141.841 122.859C141.94 123.114 142.123 123.142 143.628 123.099L144.711 123.057V123.495C144.711 123.848 144.542 124.116 144.008 124.695C143.22 125.528 143.009 126.149 143.375 126.516C143.642 126.784 143.909 126.699 144.626 126.092C145.077 125.711 145.513 125.711 145.752 126.078C145.963 126.417 145.738 126.756 145.133 127.052C144.556 127.335 144.303 127.673 144.387 128.041C144.5 128.45 144.992 128.506 145.695 128.182C146.455 127.829 146.863 127.815 147.102 128.097C147.369 128.422 147.158 128.958 146.61 129.297C146.061 129.636 145.78 130.059 145.892 130.37C145.991 130.624 146.919 130.624 147.383 130.356C147.777 130.13 148.621 130.088 148.916 130.271C149.254 130.483 148.973 130.836 148.171 131.189C147.369 131.542 147.088 131.965 147.383 132.332C147.608 132.6 148.03 132.6 148.79 132.332C149.113 132.219 149.479 132.12 149.577 132.12C149.929 132.12 149.774 132.53 149.282 132.911C148.888 133.207 148.79 133.377 148.79 133.772C148.79 134.351 149.043 134.478 149.62 134.182C149.845 134.055 150.239 133.956 150.478 133.956C151.082 133.956 151.054 134.464 150.407 135.085C149.915 135.565 149.76 136.059 150.098 136.087C150.323 136.116 150.309 136.116 151.012 135.862C152.25 135.424 152.053 135.791 150.14 137.556C149.141 138.487 147.102 140.436 145.625 141.904C142.657 144.84 142.854 144.741 141.898 143.795C141.265 143.174 140.899 142.454 140.125 140.379C139.76 139.363 138.522 136.694 137.383 134.45C134.879 129.495 134.302 128.139 133.247 124.85C132.347 121.984 131.869 120.756 129.07 114.05C126.594 108.093 125.047 104.535 123.767 101.853C123.219 100.695 122.572 99.1142 122.333 98.3236C121.348 95.0907 120.462 92.6767 118.127 86.8039C117.185 84.4321 115.919 81.1569 115.3 79.5193C114.695 77.8817 113.935 75.8771 113.612 75.0724C112.641 72.6301 112.093 70.8936 111.572 68.5219C110.883 65.3455 110.7 64.7244 108.97 59.5574C108.126 57.0304 107.156 53.8682 106.818 52.527C106.34 50.6776 105.96 49.5906 105.243 48.0095C104.399 46.146 104.202 45.5107 103.274 41.7979C102.134 37.2097 101.516 35.1909 100.7 33.5251C100.123 32.3251 100.095 32.3251 99.9121 33.5957C99.7434 34.9086 100.193 36.6874 101.389 39.4544C102.5 41.9955 102.796 42.9555 102.95 44.5931C103.232 47.6707 103.358 48.3906 104.047 50.5929C104.427 51.8353 105.257 54.6023 105.89 56.734C106.523 58.8657 107.395 61.6327 107.817 62.875C110.968 72.0795 112.135 75.7924 113.26 80.1405C113.767 82.1169 114.076 82.9498 115.131 85.2509C120.265 96.3613 122.262 101.288 125.722 111.297C127.734 117.114 129.829 121.97 130.73 122.859C131.18 123.325 131.349 123.65 131.545 124.427C132.333 127.405 133.838 131.005 136.862 137.203C138.93 141.424 140.772 145.56 141.265 147.071C141.56 147.988 141.476 148.214 140.393 149.202C139.492 150.021 137.861 150.882 135.02 152.012C132.755 152.929 131.672 153.438 131.039 153.889C130.645 154.158 130.645 154.158 130.223 153.861C129.703 153.494 129.408 152.929 128.775 151.108C128.507 150.332 127.635 148.017 126.848 145.955C122.951 135.805 121.32 130.695 120.223 125.132C119.913 123.495 119.393 122.238 119.041 122.238C118.929 122.238 118.83 122.196 118.83 122.154C118.83 121.9 116.664 112.328 116.313 111.015C116.087 110.154 115.609 108.375 115.258 107.062C114.47 104.168 114.484 104.196 112.824 100.159C111.207 96.2342 110.714 94.766 109.955 91.519C109.631 90.1214 109.027 87.5521 108.619 85.7874C108.197 84.0227 107.479 80.6205 107.001 78.2346C106.537 75.8488 105.974 72.9265 105.735 71.7689C105.51 70.5972 104.723 67.209 103.991 64.2161C102.12 56.5646 100.742 50.0141 99.2651 41.9531C98.9979 40.5273 98.7447 39.3697 98.6884 39.3697C98.4915 39.3697 98.5759 44.5507 98.7869 46.6824C99.3073 51.6376 100.672 59.2468 101.867 63.7362C103.049 68.169 103.203 68.9313 103.429 71.6983C103.654 74.3524 103.752 74.8041 104.329 75.51C104.694 75.9759 104.723 76.0465 104.54 76.3712C104.301 76.8088 104.287 77.6558 104.54 78.2346C104.638 78.4888 104.976 79.0111 105.285 79.4064C105.792 80.0417 105.834 80.1405 105.665 80.3805C105.271 80.9169 105.426 81.7216 106.228 83.2745L106.987 84.7427L106.65 85.011C106.199 85.3498 106.228 85.4627 106.804 86.1121C107.339 86.705 107.437 87.2415 107.086 87.7074C106.776 88.1309 106.832 88.4415 107.297 88.8226C107.817 89.2603 107.831 89.5285 107.367 89.825C106.692 90.2626 106.959 90.7285 108.014 90.9543C108.745 91.1096 108.576 92.0837 107.817 92.1967C107.648 92.2249 107.493 92.352 107.465 92.4931C107.423 92.6767 107.62 92.8319 108.197 93.1002C109.406 93.6507 109.519 94.2296 108.478 94.5684C108.197 94.6672 107.929 94.8648 107.873 95.0484C107.676 95.5707 107.831 95.726 108.619 95.6836C109.027 95.6695 109.434 95.6978 109.519 95.7542C109.842 95.9519 109.688 96.446 109.111 96.9542C108.464 97.5612 108.52 97.6883 109.547 97.9565C110.785 98.2671 110.982 98.7471 110.11 99.3259C109.35 99.82 109.266 99.9188 109.266 100.272C109.266 100.681 109.491 100.78 110.391 100.78C111.629 100.78 111.952 101.627 110.954 102.262C110.644 102.46 110.391 102.714 110.391 102.827C110.391 102.94 110.757 103.222 111.221 103.448C111.671 103.688 112.079 103.971 112.135 104.098C112.29 104.535 112.219 104.733 111.91 104.733C110.996 104.747 110.503 105.283 110.897 105.848C111.08 106.102 111.249 106.145 112.023 106.145C112.895 106.145 112.923 106.159 112.923 106.498C112.923 106.752 112.768 106.949 112.36 107.203C111.868 107.514 111.812 107.599 111.938 107.839C112.135 108.206 112.627 108.516 113.176 108.629C113.795 108.756 113.809 109.279 113.204 109.533C112.684 109.759 112.501 110.055 112.599 110.563C112.67 110.93 112.712 110.944 113.485 110.944C114.273 110.944 114.315 110.973 114.526 111.382C114.793 111.919 114.751 112.003 114.006 112.37C112.698 113.034 112.684 113.486 113.964 113.486C114.751 113.486 115.131 113.683 115.201 114.107C115.229 114.333 115.131 114.417 114.653 114.516C114.118 114.615 114.048 114.671 114.048 115.024C114.048 115.49 114.203 115.646 114.92 115.871C115.384 116.027 115.595 116.253 115.595 116.606C115.595 116.676 115.342 116.733 115.019 116.733C114.484 116.733 114.456 116.747 114.498 117.128C114.526 117.438 114.695 117.594 115.384 117.933C115.862 118.173 116.242 118.469 116.27 118.61C116.341 118.977 116.045 119.274 115.581 119.274C115.272 119.274 115.173 119.344 115.173 119.542C115.173 119.895 115.469 120.121 116.073 120.22C116.355 120.262 116.58 120.318 116.58 120.347C116.58 120.375 116.481 120.615 116.355 120.883C116.017 121.575 116.172 122.027 116.861 122.323C117.607 122.662 117.635 123.128 116.931 123.467C116.439 123.707 116.172 124.187 116.369 124.483C116.411 124.568 116.749 124.638 117.114 124.638C118.029 124.638 118.38 124.765 118.493 125.104C118.563 125.33 118.479 125.499 118.141 125.796C117.789 126.121 117.564 126.191 117.002 126.191C116.341 126.191 116.298 126.219 116.298 126.558C116.298 127.01 116.974 127.321 118.029 127.321C118.465 127.321 118.887 127.405 119.055 127.518C119.294 127.716 119.308 127.744 119.098 127.956C118.985 128.083 118.661 128.295 118.394 128.422C117.86 128.69 117.705 129.142 118.057 129.438C118.183 129.537 118.605 129.692 118.999 129.777C119.674 129.932 119.702 129.96 119.477 130.186C119.337 130.313 119.069 130.469 118.858 130.511C118.141 130.666 117.846 130.836 117.846 131.132C117.846 131.429 118.366 131.739 119.126 131.895C119.477 131.965 119.505 132.022 119.477 132.713C119.463 133.433 119.463 133.433 120.096 133.815C120.94 134.309 120.926 134.633 120.04 135.085C119.224 135.494 119.126 135.664 119.519 136.059C119.759 136.299 119.998 136.356 120.659 136.356C121.461 136.356 121.503 136.37 121.503 136.709C121.503 136.977 121.376 137.118 120.982 137.301C120.42 137.57 120.237 138.05 120.504 138.473C120.631 138.657 120.715 138.657 121.109 138.487C121.967 138.134 122.136 138.191 122.178 138.854C122.22 139.334 122.164 139.476 121.925 139.603C121.77 139.687 121.503 139.716 121.362 139.673C121.165 139.603 121.081 139.645 121.081 139.814C121.081 140.167 121.7 140.704 122.304 140.859C122.6 140.944 122.966 141.099 123.12 141.212C123.373 141.396 123.373 141.424 123.148 141.763C123.022 141.96 122.614 142.299 122.248 142.511C121.868 142.723 121.559 142.92 121.531 142.934C121.503 142.948 121.559 143.104 121.643 143.273C121.798 143.555 121.897 143.57 122.881 143.527L123.964 143.485V144.05C123.964 144.586 123.95 144.614 123.303 144.798C122.431 145.038 122.389 145.405 123.191 145.814C123.795 146.125 124.245 146.181 124.386 145.955C124.527 145.73 124.878 146.068 124.78 146.322C124.738 146.421 124.499 146.647 124.231 146.817C123.289 147.395 123.753 148.355 124.977 148.355C125.765 148.355 125.779 148.638 124.991 149.442C124.245 150.205 124.386 150.416 125.694 150.544C127.016 150.671 127.227 150.727 127.326 150.981C127.565 151.616 126.932 152.026 125.75 152.026C125.132 152.026 125.132 152.026 125.329 152.351C125.455 152.52 125.891 152.788 126.355 152.943C126.805 153.099 127.199 153.296 127.227 153.381C127.298 153.579 125.75 154.002 123.162 154.496C120.293 155.033 118.127 155.795 117.578 156.459C117.466 156.586 117.339 156.685 117.283 156.685C117.114 156.685 116.355 155.019 115.961 153.791C115.426 152.181 114.962 149.753 114.47 146.026C113.739 140.52 113.246 137.923 112.641 136.13C112.304 135.156 112.29 134.478 112.585 134.238C113.092 133.8 113.092 133.575 112.585 132.29C111.376 129.255 110.743 126.121 109.758 118.497C108.802 111.1 108.436 109.039 107.156 104.239C105.806 99.1283 105.384 97.0248 105.243 94.5684L105.145 93.0437L105.524 92.6767L105.918 92.3237L105.37 92.0414C105.06 91.8861 104.737 91.6743 104.638 91.5614C104.357 91.2085 101.797 76.1735 100.545 67.4631C99.8559 62.6632 99.3917 59.7974 97.6617 49.7459C96.1566 40.979 95.7628 37.7603 95.805 34.8239L95.8331 32.7628L95.4112 32.1557C94.7501 31.224 94.6376 31.2804 94.6376 32.4945C94.6376 40.4991 97.0568 59.2468 100.7 79.3217C102.725 90.5308 102.725 90.5026 103.625 93.3402C104.483 96.0083 104.596 96.6013 104.694 99.1989C104.807 101.938 105.13 103.773 106.298 108.657C107.508 113.655 107.634 114.361 108.759 121.815C110.391 132.502 112.402 144.459 114.329 154.708C114.709 156.769 115.033 158.492 115.033 158.548C115.033 158.703 113.626 159.466 112.445 159.932C109.111 161.273 105.257 161.569 102.289 160.694L101.572 160.496L101.487 156.995C101.192 145.941 100.165 135 96.9443 108.827C96.2692 103.293 95.4252 95.966 94.8345 90.4038C94.3985 86.3945 94.3141 85.0392 94.2156 80.5922C94.1593 77.7123 93.9765 73.8159 93.8077 71.7689C92.7528 58.6116 92.6403 56.7622 92.5981 52.4988C92.5559 48.1083 92.5137 47.1765 92.1761 44.3107C91.9229 42.2214 91.6276 40.7249 91.1493 39.2426C90.6992 37.8027 90.6711 37.8732 90.4179 41.0779C90.1507 44.579 90.2913 48.5883 90.7555 50.5929C91.2056 52.4988 91.2056 52.6541 90.7696 53.0635C90.3617 53.4446 90.3335 53.7129 90.6289 54.687C90.7836 55.1811 90.8399 55.9716 90.8258 57.4116C90.8258 59.2892 90.8399 59.501 91.1634 60.1362L91.501 60.828H91.1212C90.2632 60.828 90.1929 61.6044 91.0227 61.9997C91.4025 62.1974 91.5432 62.3527 91.5432 62.5927C91.5432 63.0021 91.2056 63.3691 90.8258 63.3691C90.4742 63.3691 90.4883 63.4256 90.9805 64.1456C91.5713 65.0067 91.5713 65.3173 91.0087 65.7126L90.5445 66.0373L91.2478 66.5455C91.6416 66.8279 91.9651 67.0961 91.9651 67.1384C91.9651 67.1667 91.7119 67.4631 91.3884 67.7737L90.8118 68.3384L91.2618 68.7196L91.6979 69.0866L91.4728 69.8207C91.2618 70.5125 91.2759 70.5689 91.5432 71.0207C91.6979 71.2748 91.8948 71.8113 91.9792 72.2207C92.1339 72.8842 92.1199 72.9971 91.8948 73.2512C91.7541 73.4065 91.5572 73.5336 91.4447 73.5336C91.304 73.5336 91.3322 73.6889 91.5713 74.1265C91.8526 74.663 91.8948 75.0159 91.9651 77.2041C92.0355 79.4487 92.0636 79.7311 92.359 80.2252C92.7528 80.8887 92.6825 81.1569 92.1058 81.1569C91.4728 81.1569 91.5291 81.6793 92.2464 82.3287C92.9778 82.9781 93.006 83.4157 92.3308 83.4157C92.0636 83.4157 91.7963 83.4863 91.7541 83.571C91.6979 83.6416 91.9229 84.1074 92.2324 84.5733C93.006 85.7309 92.9778 86.1403 92.1058 86.2674C91.8385 86.2956 91.7541 86.3945 91.7541 86.6486C91.7541 86.9168 91.9089 87.0862 92.3871 87.3685C93.3717 87.9474 93.5545 88.9214 92.6684 88.9214C92.1058 88.9214 92.0073 89.2179 92.373 89.8108C92.7809 90.4744 92.7528 90.7426 92.2464 90.912C92.0214 90.9967 91.8245 91.1238 91.8245 91.1943C91.8245 91.4061 92.3449 91.8579 92.9638 92.1684L93.5405 92.479L93.1888 92.8461C92.4152 93.6649 92.4434 94.2578 93.2732 94.5684C93.8218 94.766 93.7233 95.1331 93.0482 95.4719C92.359 95.8107 92.3871 96.2201 93.1185 96.6154C93.8358 96.9966 93.8218 97.3495 93.0904 97.646C92.2886 97.9565 92.359 98.3801 93.231 98.5918C93.7233 98.7189 93.8921 98.8318 94.0046 99.1424C94.1593 99.5941 93.9624 99.7918 93.3435 99.7918C92.7809 99.7918 92.8231 100.3 93.4561 101.048L93.9765 101.641L93.5827 102.051L93.2029 102.446L93.4983 102.742C93.6811 102.926 93.9765 103.039 94.2859 103.039C94.6798 103.039 94.7782 103.095 94.7782 103.307C94.7782 103.66 94.4125 104.027 94.075 104.027C93.9343 104.027 93.6952 104.14 93.5264 104.267C93.2732 104.493 93.2592 104.563 93.4139 104.86C93.4983 105.058 93.864 105.41 94.2156 105.65C94.9048 106.13 95.2283 106.738 94.947 107.02C94.8626 107.105 94.4407 107.175 93.9906 107.161C93.3295 107.147 93.217 107.175 93.2873 107.359C93.3295 107.486 93.3717 107.641 93.3717 107.712C93.3717 107.782 93.7233 108.065 94.1453 108.333C94.5672 108.601 94.9892 108.968 95.0736 109.123C95.3268 109.603 95.0314 110.055 94.3281 110.253C93.5827 110.464 93.3717 110.62 93.3717 110.959C93.3717 111.312 93.5686 111.396 94.5532 111.495C95.2705 111.566 95.4112 111.622 95.4534 111.862C95.5237 112.342 95.158 112.667 94.4547 112.737C93.3717 112.864 93.4139 113.316 94.5391 113.74C95.7628 114.206 95.7628 114.756 94.5391 115.053C93.7655 115.25 93.5264 115.617 93.9343 116.027C94.1312 116.224 94.3985 116.309 94.8908 116.309C95.9738 116.309 96.5364 116.93 95.9457 117.481C95.805 117.594 95.3268 117.834 94.8767 118.003L94.0609 118.314L94.3985 118.751C94.933 119.457 95.4252 119.754 96.0441 119.768C96.5505 119.768 96.6067 119.796 96.6067 120.135C96.6067 120.417 96.5083 120.544 96.1848 120.671C95.9597 120.756 95.58 120.897 95.3549 120.982C94.4547 121.321 94.7079 121.984 95.8753 122.323C96.3114 122.45 96.7755 122.634 96.8881 122.747C97.1975 123.043 96.9021 123.396 96.1848 123.608C95.4112 123.834 95.2002 124.017 95.2002 124.511C95.2002 125.005 95.3127 125.076 96.3395 125.161C97.296 125.259 97.5351 125.499 97.3803 126.205C97.2678 126.685 97.1834 126.699 96.3114 126.389C95.383 126.05 95.2002 126.163 95.2002 127.095C95.2002 128.125 95.4815 128.45 96.3958 128.549C97.6476 128.662 97.732 128.704 97.732 129.142C97.732 129.72 97.4225 129.89 96.2551 129.975C95.2846 130.031 95.2002 130.059 95.2002 130.342C95.2002 130.808 95.5659 131.217 96.3254 131.64C97.1834 132.106 97.2397 132.445 96.5364 132.742C95.9457 132.996 95.8472 133.207 96.0441 133.744C96.1848 134.125 96.227 134.125 96.9162 134.055C97.7461 133.956 98.154 134.125 98.154 134.577C98.154 135 97.7601 135.339 97.1553 135.452C96.5083 135.579 96.0441 135.89 96.0441 136.2C96.0441 136.596 96.3395 136.765 97.2538 136.864C98.3509 136.991 98.5759 137.118 98.5759 137.626C98.5759 138.12 98.2665 138.247 97.3803 138.106C96.9584 138.05 96.6771 138.078 96.5364 138.191C96.2551 138.431 96.2551 139.588 96.5505 140.012C96.7474 140.28 96.874 140.323 97.3663 140.28C99.0119 140.097 98.9697 140.986 97.31 141.537C96.663 141.748 96.5224 141.847 96.4942 142.158C96.438 142.666 96.8318 142.948 97.8304 143.118C98.8854 143.287 99.2792 143.485 99.2792 143.824C99.2792 144.247 98.9416 144.417 97.8867 144.53C96.8037 144.642 96.3817 144.897 96.5224 145.348C96.663 145.772 97.4085 146.125 98.379 146.21C99.2511 146.28 99.2792 146.28 99.2792 146.675C99.2792 147.198 98.9416 147.367 97.957 147.367C97.3382 147.367 97.1694 147.409 97.1694 147.593C97.1694 148.017 97.4647 148.355 98.154 148.708C98.5337 148.892 98.8854 149.118 98.9276 149.202C99.0963 149.485 98.5759 149.866 97.9008 149.965C96.8881 150.106 96.8318 150.176 97.1834 150.967C97.4647 151.588 97.4788 151.8 97.3944 153.494C97.2819 155.598 97.4085 156.063 98.2524 156.628C98.7025 156.939 98.7166 156.939 98.4634 157.249C98.2946 157.447 98.0414 157.574 97.7601 157.588C97.5069 157.588 97.31 157.673 97.31 157.757C97.31 158.026 97.957 158.52 98.6181 158.746C98.9838 158.873 99.2792 159.014 99.2792 159.085C99.2792 159.141 99.0119 159.31 98.6884 159.452C98.168 159.663 97.4929 159.72 94.2156 159.79C91.9511 159.847 90.1929 159.946 89.9819 160.044L89.6021 160.2L89.4896 156.43C89.4193 154.355 89.3911 144.685 89.4333 134.944C89.5459 106.159 89.5037 87.7356 89.3208 78.3335C89.2224 73.4771 89.0817 66.2349 89.0114 62.2397C88.8988 55.4211 88.8707 54.6587 88.3925 50.0141C87.9002 45.0307 87.7595 42.1084 87.9565 40.005C88.069 38.7062 87.9002 37.8732 87.4079 37.2944L87.0844 36.9274L86.9859 41.5014C86.8593 47.3883 87.1125 62.4091 87.4642 70.8372C87.858 80.0417 87.9424 87.6509 87.7455 97.2507C87.5064 108.389 87.5064 108.869 87.7173 112.427C87.9846 116.93 88.0268 151.631 87.7736 154.708C87.5626 157.292 87.0985 161.075 86.8593 162.261L86.6765 163.108L86.0576 163.221C84.8339 163.447 83.1601 163.235 81.2191 162.614C79.4187 162.049 79.3906 162.035 77.4917 162.077C75.7476 162.106 75.5225 162.077 74.9881 161.795C74.6505 161.626 74.3832 161.4 74.3832 161.301C74.3832 161.202 74.5942 160.073 74.8615 158.802C76.7181 149.908 77.5339 141.678 78.5326 122.097C79.2218 108.432 79.475 104.86 81.205 83.8392C83.0335 61.675 83.5399 53.5011 83.7509 41.8684L83.8493 36.8144L83.4836 36.9838C82.696 37.3509 82.6116 37.6474 82.5975 40.4285C82.5975 42.6167 82.5412 43.2661 82.1896 45.1578C81.8098 47.1624 81.7817 47.6142 81.7676 50.5929C81.7676 53.8399 81.7676 53.8399 81.3879 54.5034L81.0222 55.1669L81.2894 55.6893C81.5285 56.1693 81.5285 56.2257 81.3175 56.381C81.1347 56.5222 81.1206 56.6775 81.2191 57.3834C81.3738 58.4845 81.3316 58.7104 80.9096 59.148L80.558 59.5151L80.994 59.868L81.4301 60.2068L81.0644 61.1527C80.6705 62.1974 80.6283 62.7621 80.8815 63.4538C81.0081 63.835 80.98 64.1314 80.6424 65.402C80.2345 66.9267 80.2345 67.1384 80.6565 68.2396C80.6986 68.3384 80.5439 68.649 80.3048 68.9172C80.0657 69.1854 79.8688 69.4537 79.8688 69.496C79.8688 69.5525 80.0235 69.8066 80.2064 70.0466C80.7971 70.8372 80.7971 71.0772 80.1923 71.3736C79.5312 71.6842 79.4328 72.1218 79.911 72.6018C80.2204 72.9124 80.2345 72.9689 80.0235 73.1665C79.8688 73.3218 79.7703 73.7453 79.7281 74.423L79.6578 75.4394L79.1655 75.5947C78.4622 75.8206 78.4763 76.1312 79.2218 76.5688C79.5593 76.7664 79.8829 77.0347 79.925 77.1476C79.9672 77.2606 79.8266 77.7264 79.6015 78.1641C78.9264 79.5193 78.8279 79.9428 79.0811 80.4369C79.3906 81.0299 79.3624 81.284 78.9545 81.4675C78.7576 81.5522 78.6029 81.7357 78.6029 81.8769C78.6029 82.0181 78.7576 82.244 78.9545 82.371C79.4046 82.6675 79.3906 82.8651 78.9405 83.4016C78.5748 83.8392 78.5748 83.8533 78.7998 84.418C79.0108 84.9404 79.0108 85.0533 78.7998 85.858C78.6591 86.3945 78.6029 86.9733 78.6591 87.3685C78.842 88.752 78.842 88.6956 78.3778 88.8509L77.9277 88.992L78.2653 89.6273C78.617 90.3191 78.7154 91.152 78.4341 91.1379C77.4636 91.1096 77.4073 91.3073 78.1106 92.3378C78.7013 93.1849 78.7013 93.5519 78.1106 93.8625C77.8855 93.9754 77.6605 94.0884 77.6324 94.1025C77.5058 94.1731 78.0543 94.8366 78.3216 94.9213C78.7576 95.0625 78.5888 95.3307 78.0262 95.4154C77.3511 95.5142 77.2948 96.0507 77.8855 96.7283C78.1247 96.9966 78.3216 97.3213 78.3216 97.4342C78.3216 97.7448 77.8715 97.9706 77.6042 97.8012C77.2807 97.5895 77.1963 97.646 77.1963 98.1259C77.1963 98.4648 77.337 98.6906 77.7871 99.1C78.3497 99.6365 78.3638 99.6506 78.1106 99.933C77.9559 100.102 77.6746 100.215 77.3792 100.215C76.9854 100.215 76.915 100.258 76.915 100.554C76.915 100.766 77.0979 101.034 77.4073 101.302C78.0403 101.811 78.1247 102.347 77.5902 102.403C77.3933 102.432 77.0557 102.545 76.8447 102.658L76.4509 102.855L77.0979 103.392C77.773 103.956 78.1387 104.592 77.9699 104.888C77.8996 104.987 77.6464 105.015 77.2526 104.959C76.4087 104.846 76.2118 104.959 76.2118 105.509C76.2118 105.961 76.2539 105.989 76.7884 106.102C77.5761 106.258 77.7871 106.582 77.3792 107.02C76.8025 107.641 76.7462 108.05 77.1119 108.94C77.7308 110.45 77.759 110.366 76.7462 110.408C75.9445 110.45 75.8601 110.479 75.9023 110.733C75.9304 110.888 76.1274 111.283 76.3665 111.608C76.8869 112.342 76.8869 112.554 76.3524 112.78C76.1274 112.879 75.9304 113.006 75.9304 113.062C75.9304 113.133 76.2539 113.457 76.6478 113.796C77.1823 114.262 77.3229 114.474 77.2526 114.657C77.1401 114.954 76.6478 115.18 76.1274 115.18C75.5788 115.18 75.6913 115.688 76.3524 116.097C76.6618 116.295 76.915 116.521 76.915 116.591C76.915 116.662 76.7181 117.043 76.4931 117.41C75.9304 118.342 75.9445 118.723 76.5775 119.245C77.2948 119.838 77.1963 120.177 76.3102 120.234L75.621 120.276L75.8742 120.657C76.0711 120.954 76.1414 121.321 76.1414 122.323C76.1414 123.354 76.1977 123.678 76.3946 123.89C76.5212 124.045 76.6337 124.299 76.6337 124.469C76.6337 124.906 75.9726 125.626 75.5647 125.626C75.0021 125.626 75.2272 126.459 75.9867 127.165C76.4368 127.589 76.2961 127.899 75.5085 128.309C75.199 128.464 74.9459 128.662 74.9459 128.746C74.9459 128.944 75.9304 129.932 76.1977 130.017C76.4931 130.116 76.1414 130.596 75.4803 131.005C74.8193 131.429 74.8052 131.711 75.4522 132.022C75.9023 132.247 75.9445 132.304 75.9023 132.798C75.8601 133.292 75.8179 133.335 75.185 133.532C74.5942 133.716 74.5239 133.786 74.552 134.097C74.5802 134.337 74.7771 134.549 75.199 134.774C75.8038 135.113 76.1555 135.551 76.0008 135.791C75.9586 135.876 75.6632 135.932 75.3538 135.932C74.7067 135.932 74.2426 136.13 74.2426 136.412C74.2426 136.666 74.9177 137.245 75.4944 137.471C75.7335 137.584 75.9304 137.753 75.9304 137.852C75.9304 138.092 75.4241 138.417 74.8474 138.544C73.8628 138.741 73.905 139.377 74.9177 139.899C75.9726 140.436 75.8601 141.297 74.7208 141.297C74.0879 141.297 74.0175 141.621 74.5239 142.2C75.185 142.948 75.1006 143.203 74.0316 143.555C73.5252 143.725 73.1173 143.894 73.1173 143.923C73.1173 144.205 73.483 144.544 73.9191 144.685C74.6083 144.911 74.9459 145.221 74.9459 145.602C74.9459 146.012 74.6786 146.238 74.0457 146.337C73.6237 146.407 73.5393 146.478 73.5393 146.746C73.5393 147 73.68 147.141 74.0738 147.325C74.3973 147.48 74.6083 147.692 74.6364 147.875C74.6786 148.129 74.5802 148.186 74.116 148.271C73.5393 148.355 73.1173 148.765 73.1173 149.231C73.1173 149.372 73.3705 149.64 73.68 149.838C74.4817 150.346 74.4395 150.699 73.5674 150.812C73.1877 150.854 72.7657 150.981 72.625 151.094C72.3859 151.264 72.3719 151.32 72.5547 151.532C72.6672 151.673 73.0048 151.927 73.2861 152.111C73.8769 152.492 74.0175 153.014 73.5393 153.014C73.3705 153.014 73.047 153.113 72.822 153.24C72.4 153.452 72.4 153.466 72.6391 153.748C72.7798 153.903 73.1033 154.115 73.3565 154.214C74.1863 154.567 73.8909 155.075 72.7798 155.216C72.2734 155.287 72.1328 155.358 72.2031 155.527C72.4985 156.289 72.836 157.997 72.836 158.689C72.836 159.141 72.822 159.508 72.7938 159.508C72.7657 159.508 72.3156 159.282 71.767 159.014C69.4322 157.828 66.9566 157.263 63.595 157.15L61.1617 157.066V156.6C61.1617 156.346 61.0913 156.12 61.0069 156.092C60.8944 156.049 61.1054 154.708 61.6961 151.744C62.1603 149.372 62.9339 145.122 63.3981 142.285C63.8622 139.447 64.7202 134.224 65.311 130.666C66.9707 120.516 67.7302 116.916 68.9821 113.02C69.9245 110.126 70.0511 109.561 70.1636 108.192C70.262 106.893 70.3605 106.483 70.7403 105.665L71.1904 104.69L71.3029 101.218C71.4154 97.3213 71.4295 97.2224 72.822 90.5449C74.7208 81.4393 77.5058 65.6985 78.4622 58.6398C79.475 51.1717 80.136 42.7296 80.1501 37.3509V36.1086L79.7422 36.3203C79.0249 36.7015 78.8561 37.3085 78.9545 39.2709C79.053 41.1767 79.0389 41.332 76.8588 57.6516C76.2821 61.9997 75.6773 66.7573 75.5085 68.2396C75.3397 69.7219 75.0303 71.6419 74.8052 72.5454C73.7644 76.6959 72.7938 82.0746 71.2185 92.4508C69.2493 105.312 68.6164 108.516 66.5628 115.956C65.0859 121.292 65.0015 121.589 64.6921 123.015C64.2983 124.794 63.5387 129.382 62.7089 135.014C61.3023 144.628 60.6694 148.158 59.6004 152.52C58.5877 156.67 58.3345 157.447 57.9547 157.503C57.7859 157.532 57.6453 157.602 57.6453 157.673C57.6453 157.885 56.7029 158.11 56.295 158.012C56.0699 157.955 55.5495 157.659 55.1275 157.362C54.1711 156.642 53.4256 156.388 50.7813 155.838C48.1511 155.301 47.2368 154.976 46.5195 154.299C45.8584 153.649 45.8443 153.423 46.3225 151.673C46.5195 150.967 46.8008 149.654 46.9555 148.751C47.3071 146.69 47.6869 145.391 48.9106 141.96C50.5563 137.372 50.6406 137.047 50.8938 134.45C51.1189 132.233 51.2314 131.782 52.3988 128.761C53.2287 126.558 53.5522 125.514 54.0023 123.396C55.2541 117.438 57.0123 110.789 59.741 101.698C60.2052 100.145 60.81 98.0554 61.0773 97.053C61.4289 95.7401 61.668 95.1331 61.9212 94.8648C62.2728 94.4978 62.2869 94.4131 62.2588 93.1425C62.2306 91.8296 62.2306 91.7873 63.0183 89.7685C66.1127 81.7216 66.394 80.7899 67.6177 74.31C68.6867 68.7055 69.0946 67.1243 70.1073 64.7103C70.7825 63.0868 71.0919 62.0985 71.4295 60.4751C71.6686 59.3033 72.3719 56.3104 72.9907 53.7976C73.5956 51.2847 74.327 48.1365 74.6083 46.8095C75.6773 41.6426 76.479 38.5085 77.1541 36.7439C77.2807 36.405 76.69 36.518 76.2118 36.9133C75.5647 37.4638 75.1287 38.4097 73.4549 42.8567C73.0611 43.9013 72.8923 44.9037 72.6954 47.2754C72.4703 50.0141 72.2734 51.4259 72.0624 51.6517C71.964 51.7647 71.8233 52.047 71.7811 52.287C71.6405 52.8941 71.3169 53.3458 71.0356 53.3458C70.8387 53.3458 70.7965 53.5011 70.7825 54.3764C70.7825 55.6752 70.248 57.2281 69.4462 58.301C68.8414 59.1198 68.7992 59.3316 69.1087 60.348C69.2212 60.7292 69.3196 61.2797 69.3196 61.5621V62.0985H68.6164C68.1522 62.0985 67.9131 62.155 67.899 62.268C67.8568 62.6774 67.9694 62.8891 68.3632 63.2279C68.6445 63.4679 68.7711 63.6938 68.743 63.8632C68.6867 64.1032 68.546 64.1456 67.8287 64.1879L66.9848 64.2303L67.041 65.5996C67.0692 66.3761 67.1817 67.1525 67.2942 67.3784C67.5474 67.9008 67.5474 67.8867 67.2098 67.8867C66.8301 67.8867 66.2252 68.1831 66.2252 68.3808C66.2252 68.4655 66.4503 68.7478 66.7175 69.016C67.0973 69.3831 67.2098 69.609 67.2098 69.976C67.2098 70.4419 67.1958 70.456 66.7597 70.3995C66.5065 70.3572 66.183 70.2866 66.0564 70.216C65.8314 70.1313 65.8033 70.2019 65.8033 70.7101C65.8033 71.3877 66.0002 71.8395 66.2956 71.8395C66.5487 71.8395 66.5628 71.9948 66.3378 72.3054C66.183 72.503 66.0705 72.5171 65.6767 72.4042C65.4094 72.3336 65.1422 72.3054 65.0859 72.3477C64.8327 72.503 64.9734 73.2089 65.3813 73.8159C65.8033 74.4512 65.9158 74.8041 65.6767 74.8041C65.6064 74.8041 65.2969 74.7194 64.9875 74.6065C64.1295 74.2959 63.9607 74.6771 64.678 75.3265C65.3391 75.9194 65.2406 76.1876 64.3686 76.2441L63.6231 76.2865L63.5809 76.9641C63.5528 77.4582 63.6653 78.0229 63.9748 78.9123C64.2139 79.604 64.3686 80.2393 64.3264 80.3099C64.2139 80.4934 63.1449 80.7616 62.8354 80.6911C62.3291 80.5499 62.5401 81.1287 63.1308 81.524C63.595 81.8346 63.6934 81.9757 63.6934 82.371C63.6934 82.9216 63.4543 83.091 62.4979 83.2322C61.7524 83.331 61.7524 83.4863 62.4416 83.938C63.1308 84.4039 63.2715 84.531 63.2715 84.7568C63.2715 84.9121 63.0886 84.9686 62.5682 84.9686C61.9775 84.9686 61.8649 85.011 61.8649 85.2368C61.8649 85.378 62.0618 85.7309 62.2869 86.0274C62.7229 86.578 62.7792 86.7615 62.5963 87.0438C62.526 87.1709 62.3432 87.1709 61.8931 87.0438C61.246 86.8744 60.8522 87.0015 60.7678 87.4109C60.7397 87.538 60.9788 87.9191 61.2882 88.2579C61.6117 88.5968 61.8649 89.0062 61.8649 89.1614C61.8649 89.5144 61.3304 89.7685 60.599 89.7685C60.2896 89.7685 60.0364 89.825 60.0364 89.9097C60.0364 90.2344 60.374 90.7285 60.7397 90.9543L61.1476 91.1943L60.6272 91.6743C60.1067 92.1402 60.1067 92.1543 60.1067 93.3261V94.4978L59.3753 94.5401C58.4892 94.5966 58.4189 94.7943 59.0518 95.5001C59.6144 96.1495 59.5019 96.3472 58.6299 96.2907C57.9969 96.2342 57.9266 96.2625 57.9266 96.5307C57.9266 96.7001 58.0813 97.0813 58.2782 97.3918C58.4751 97.7024 58.6299 98.0836 58.6299 98.2389C58.6299 98.4789 58.5314 98.5212 58.0672 98.5212C57.5749 98.5212 57.5046 98.5636 57.5046 98.86C57.5046 99.0436 57.7015 99.4247 57.9266 99.7212C58.4611 100.399 58.4892 101.006 57.9828 101.232C57.7156 101.359 57.5187 101.359 57.2233 101.246C56.4778 100.964 56.4356 101.571 57.153 102.248C57.4202 102.516 57.6453 102.841 57.6453 102.996C57.6453 103.307 57.1248 103.603 56.5763 103.603C56.2387 103.603 56.2247 103.646 56.309 104.069C56.3653 104.309 56.4216 104.62 56.4638 104.747C56.5763 105.142 56.1684 105.495 55.6198 105.481C55.1838 105.467 55.1135 105.509 55.1135 105.792C55.1135 106.003 55.2823 106.258 55.5917 106.498C56.1121 106.893 56.309 107.457 56.0137 107.712C55.859 107.839 55.648 107.825 55.1697 107.697C54.6212 107.542 54.5087 107.542 54.3117 107.74C54.1008 107.952 54.143 108.022 54.8181 108.657C55.4229 109.236 55.5495 109.434 55.5073 109.759C55.4651 110.168 55.4651 110.168 54.368 110.21L53.2568 110.253L53.8335 110.662C54.2977 111.001 54.4102 111.17 54.4102 111.523C54.4102 111.89 54.368 111.947 54.1711 111.862C53.5522 111.594 53.285 111.608 53.285 111.904C53.285 112.243 53.4819 112.413 54.1711 112.624C54.6071 112.78 54.6915 112.864 54.6915 113.189C54.6915 113.881 54.2836 114.093 53.2146 113.98C52.5395 113.909 52.3004 113.937 52.3004 114.05C52.3004 114.248 53.1865 115.151 53.6929 115.476C54.2414 115.829 53.946 116.027 52.8489 116.027C52.1597 116.027 51.8784 116.083 51.8784 116.196C51.8784 116.493 52.0472 116.662 52.6801 117.071C53.1302 117.34 53.285 117.537 53.285 117.791C53.285 118.116 53.2428 118.144 52.5817 118.144C51.9628 118.144 51.8784 118.173 51.8784 118.441C51.8784 118.61 52.0613 118.963 52.3004 119.231C52.7364 119.725 52.7927 119.923 52.5958 120.248C52.5114 120.375 52.3426 120.417 52.0753 120.347C51.2455 120.135 50.9642 120.177 50.922 120.488C50.8938 120.714 51.0204 120.883 51.3721 121.109C51.8503 121.405 52.3004 121.9 52.3004 122.125C52.3004 122.196 51.8925 122.238 51.3861 122.238C50.6828 122.238 50.4719 122.281 50.4719 122.436C50.4719 122.704 50.8094 123.029 51.3439 123.311C51.7096 123.495 51.7518 123.579 51.6674 123.975C51.5127 124.681 51.3299 124.822 50.6828 124.737C50.3734 124.695 50.0077 124.624 49.8811 124.568C49.6701 124.483 49.6279 124.539 49.6279 124.836C49.6279 125.231 49.8248 125.457 50.6125 125.965C50.9923 126.205 51.1048 126.361 51.1048 126.685C51.1048 127.151 50.9642 127.179 49.867 126.968L49.3326 126.855L49.3747 127.335C49.4029 127.716 49.5295 127.885 49.9374 128.153C50.5984 128.577 50.6828 129.071 50.0921 128.916C49.4029 128.732 48.8684 128.789 48.8121 129.029C48.7981 129.156 48.995 129.523 49.2763 129.848C49.5435 130.186 49.7686 130.568 49.7686 130.723C49.7686 130.963 49.6561 130.991 48.8543 130.991C48.0385 130.991 47.9401 131.019 47.9401 131.273C47.9401 131.457 48.1229 131.64 48.4746 131.796C48.8684 131.993 49.009 132.149 49.0372 132.445C49.0794 132.826 49.0653 132.826 48.3058 132.826C47.8697 132.826 47.5181 132.883 47.5181 132.953C47.5181 133.306 47.7431 133.575 48.2776 133.843C48.9106 134.167 49.0653 134.323 49.0653 134.69C49.0653 134.916 48.9247 134.944 47.9401 134.944C46.9273 134.944 46.8148 134.972 46.8148 135.212C46.8148 135.367 47.068 135.791 47.3774 136.144C47.9541 136.807 48.362 137.485 48.362 137.767C48.362 137.852 47.926 137.909 47.2368 137.909C46.2241 137.909 46.1115 137.937 46.1115 138.177C46.1115 138.445 46.7164 139.038 46.9977 139.038C47.2509 139.038 47.6588 139.49 47.6588 139.758C47.6588 139.899 47.504 140.125 47.3212 140.238C47.0399 140.421 46.8711 140.436 46.4351 140.323C45.6052 140.083 45.4083 140.125 45.4083 140.52C45.4083 140.732 45.5489 140.958 45.774 141.113C46.421 141.551 46.9555 142.115 46.9555 142.341C46.9555 142.525 46.7867 142.567 46.0694 142.567C44.8035 142.567 44.6909 142.751 45.4927 143.57C45.9287 144.021 46.1256 144.318 46.0694 144.459C45.9287 144.826 45.5349 144.897 45.0988 144.642C44.8597 144.515 44.5221 144.403 44.3252 144.403C43.7767 144.403 43.9455 144.967 44.5925 145.32C44.9722 145.518 45.127 145.701 45.127 145.913C45.127 146.21 45.0566 146.238 44.4237 146.238C44.0439 146.238 43.7204 146.266 43.7204 146.308C43.7204 146.351 43.9455 146.704 44.2127 147.099C44.4799 147.494 44.705 147.889 44.705 147.988C44.705 148.073 44.7472 148.285 44.7894 148.454C44.8738 148.751 44.8316 148.779 44.3956 148.779C44.1283 148.779 43.5094 148.581 43.0171 148.341C42.1029 147.875 40.3728 146.365 39.9649 145.659C39.7821 145.362 39.5148 145.193 38.9522 145.024C38.1083 144.784 37.4331 144.346 35.9141 143.118C34.9154 142.313 33.9167 141.72 33.537 141.72C33.1009 141.72 33.1713 141.367 34.0011 139.701C35.0139 137.64 35.9844 136.031 37.194 134.422C37.8832 133.504 38.0942 133.123 38.0942 132.756C38.0942 131.753 38.6287 130.045 39.2476 128.986C42.7921 123.114 45.4927 116.888 51.0345 101.839C51.6674 100.131 52.9333 96.8836 53.8476 94.639C55.437 90.7002 56.4638 88.0462 58.2079 83.2039C60.0223 78.2205 63.8622 68.1125 66.9707 60.1927C67.885 57.8351 68.4054 56.2822 68.6726 55.0964C69.0805 53.2188 70.2902 48.9694 71.8374 43.9719C72.7376 41.0638 72.836 40.612 72.836 39.5956L72.822 38.452L72.4141 38.9038C71.9921 39.3697 71.767 40.0191 71.3591 41.9814C71.1763 42.8002 70.8387 43.6472 70.0933 45.0872C68.8696 47.4589 68.8133 47.6142 68.546 49.6612C68.3351 51.3129 68.1522 51.7647 67.5615 52.16C67.041 52.4988 66.4643 54.1929 65.1703 59.2045C64.889 60.2915 64.467 61.8162 64.2279 62.5927C63.4121 65.2608 60.3318 73.2371 59.2487 75.4677C57.8141 78.4323 57.7437 78.6017 57.2233 80.4652C56.3934 83.4016 55.7464 85.2651 53.8054 90.3332C53.2287 91.8437 52.427 94.0319 52.0191 95.2037C49.9655 101.204 49.4029 102.672 47.3493 107.627C40.9636 123.015 36.547 132.247 32.6649 138.36C31.9054 139.546 31.9054 139.546 31.0614 139.73C29.894 139.97 29.7815 139.899 27.095 137.174C24.9429 135 24.521 134.506 24.085 133.589C23.6067 132.629 23.5645 132.431 23.5505 131.316C23.5364 130.102 23.5505 130.073 23.9162 129.89C24.1271 129.791 24.5772 129.382 24.9008 128.972C25.2383 128.577 25.8009 127.956 26.1526 127.603C26.6027 127.151 26.8418 126.77 26.9824 126.262C27.1372 125.725 27.3903 125.344 28.0655 124.638C28.7547 123.918 29.1485 123.311 29.9081 121.815C30.4285 120.77 31.7647 118.469 32.8618 116.704C34.9998 113.288 36.125 111.227 36.8283 109.547C37.0674 108.968 37.4894 108.234 37.7988 107.895C38.5584 107.076 39.0929 105.961 39.6414 104.027C40.1759 102.149 40.5979 101.246 41.3293 100.356C42.2154 99.2694 42.3279 99.0294 42.4545 97.7448C42.5952 96.3472 42.8905 95.6413 44.4237 92.9449C44.9582 92.0131 45.999 89.952 46.7445 88.3568C50.7813 79.7875 54.143 72.3901 57.2374 65.2749C58.1094 63.2562 59.3894 60.4892 60.0786 59.1339C62.4275 54.5176 63.6231 51.7364 66.8301 43.4496C67.7162 41.1626 68.7711 38.6356 69.1649 37.8309C69.9104 36.3062 70.0511 35.558 69.6994 35.078C69.5166 34.838 69.4744 34.8662 69.0524 35.4309C68.4195 36.3203 67.3645 38.4097 66.3659 40.852C65.4376 43.0825 64.5374 44.9742 64.1013 45.5954C63.9607 45.7931 63.806 46.2448 63.7497 46.5836C63.4262 48.8565 62.8073 50.4659 60.6412 54.7575C59.7973 56.4234 58.9534 58.2869 58.7705 58.8798C58.5736 59.4868 58.3485 59.9809 58.2642 59.9809C58.1798 59.9809 57.9969 60.1362 57.8703 60.3339C57.7437 60.5315 57.5046 60.6868 57.3499 60.6868C57.1248 60.6868 57.0826 60.7433 57.153 60.9268C57.2092 61.068 57.2796 61.3786 57.3218 61.6186C57.3921 62.028 57.3499 62.0985 56.8857 62.3103C56.2247 62.635 55.9011 63.1856 55.4792 64.7667C55.0432 66.3902 54.7196 67.0255 54.157 67.3925C53.7351 67.6608 53.721 67.7172 53.7069 68.6349V69.609L53.1865 69.5525C52.7364 69.5101 52.652 69.5525 52.6098 69.8066C52.5817 69.976 52.6661 70.3572 52.7786 70.6395C52.9052 70.936 53.0037 71.2889 53.0037 71.4301C53.0037 71.7689 52.4973 71.9807 51.7237 71.9807C51.0345 71.9807 50.9782 72.3054 51.5971 72.8983C51.8221 73.1242 52.0191 73.4065 52.0191 73.5195C52.0191 73.6465 51.6956 73.9289 51.3017 74.1689C50.0499 74.9171 49.4732 76.0041 49.4591 77.6558C49.4591 78.5452 49.4451 78.6017 49.0653 78.757C48.7559 78.884 48.6011 78.884 48.362 78.757C48.1089 78.6158 48.0245 78.6299 47.926 78.7711C47.8557 78.884 47.8275 79.0252 47.8557 79.1099C47.8838 79.1805 47.9823 79.4911 48.0948 79.7734C48.2214 80.1546 48.2354 80.4228 48.137 80.6911C48.0245 81.044 47.926 81.0863 47.2649 81.1287C46.3929 81.1852 46.2944 81.4393 46.9555 82.0746C47.4618 82.5545 47.49 82.851 47.0539 82.851C46.5054 82.851 46.1537 83.4016 45.7177 84.9686C45.127 87.1427 44.7894 87.6509 44.0158 87.6509C43.636 87.6509 43.5094 88.145 43.7767 88.5685C43.9033 88.752 44.0017 89.0626 44.0017 89.2603C44.0017 89.5426 43.9033 89.6414 43.4672 89.7544C43.1859 89.8391 42.8624 89.9097 42.7499 89.9097C42.5952 89.9097 42.5811 90.0508 42.6655 90.5732C42.8484 91.8155 42.8202 92.1967 42.553 92.3661C42.342 92.4931 42.2435 92.4508 41.9763 92.1261C41.6246 91.6884 41.3152 91.6461 41.0339 91.9708C40.8792 92.1543 40.8932 92.2814 41.1605 92.7755C41.695 93.7778 41.5825 94.0037 40.7385 93.6507C40.5275 93.566 40.4853 93.6225 40.4853 94.046C40.4853 94.4554 40.5838 94.6248 40.9917 94.9637C41.8356 95.6695 41.484 95.8248 39.7961 95.4719C39.3601 95.3872 39.332 95.4013 39.4304 95.7119C39.6695 96.4742 39.7821 96.6577 40.1337 96.9401C40.3447 97.1095 40.4713 97.3071 40.415 97.3918C40.3728 97.4624 39.8524 97.533 39.2757 97.533C38.263 97.533 38.2208 97.5471 38.263 97.8436C38.2911 98.0695 38.474 98.2248 38.8678 98.3801C39.6977 98.6906 39.7821 98.7753 39.7821 99.2694C39.7821 100.06 39.6133 100.173 38.8397 99.9471C37.8832 99.6788 37.616 99.6788 37.5597 99.9753C37.5316 100.131 37.7707 100.484 38.2208 100.921C38.9803 101.655 39.0788 101.909 38.7131 102.206C38.5443 102.347 38.3615 102.347 37.7707 102.206C36.5048 101.909 36.4767 101.924 36.5048 102.474C36.5189 102.799 36.6314 103.039 36.8564 103.208C37.7707 103.886 37.9536 104.069 37.9536 104.253C37.9536 104.521 37.2503 104.507 36.3501 104.239C35.9141 104.098 35.6046 104.069 35.5202 104.154C35.253 104.422 35.5624 104.945 36.1954 105.326C36.6173 105.58 36.8283 105.806 36.8283 106.003C36.8283 106.399 36.3923 106.37 35.9844 105.933C35.5905 105.509 34.9998 105.453 34.9998 105.848C34.9998 105.989 35.0983 106.342 35.2108 106.61C35.4921 107.288 35.4921 108.177 35.2248 108.079C34.7747 107.895 34.0011 107.81 33.6636 107.895C33.1291 108.036 33.1994 108.502 33.8042 108.742C34.2121 108.926 34.2965 109.025 34.2965 109.377C34.2965 109.886 34.1137 109.928 33.5229 109.533C32.9462 109.152 32.89 109.166 32.89 109.744C32.89 110.408 33.1994 110.987 33.6636 111.199C33.973 111.34 34.0152 111.41 33.8746 111.58C33.6214 111.876 33.3401 111.848 32.8056 111.439C32.5524 111.241 32.2148 111.086 32.0601 111.086C31.821 111.086 31.7647 111.17 31.7647 111.552C31.7647 111.806 31.8632 112.356 31.9898 112.766C32.1023 113.175 32.1726 113.556 32.1304 113.599C32.0882 113.641 31.8913 113.599 31.6944 113.514C31.2724 113.316 31.188 113.316 30.9489 113.457C30.7239 113.613 31.0896 114.587 31.5115 114.911C31.821 115.151 31.7507 115.462 31.399 115.462C31.2865 115.462 31.0052 115.363 30.7801 115.25C30.4004 115.053 30.3582 115.053 30.2316 115.293C30.1331 115.476 30.1753 115.716 30.4004 116.154C30.9208 117.17 30.2597 117.678 29.4439 116.874C29.1907 116.62 28.8954 116.45 28.7969 116.478C28.6984 116.507 28.614 116.93 28.5719 117.594C28.5156 118.469 28.5578 118.709 28.7547 118.907C28.9376 119.09 28.9516 119.189 28.825 119.316C28.6984 119.443 28.5437 119.415 28.178 119.217C27.9108 119.062 27.6435 118.977 27.6013 119.02C27.5591 119.076 27.5873 119.344 27.6717 119.627C27.8404 120.276 27.7561 120.502 27.2497 120.77C26.7855 121.01 26.7855 120.996 27.0106 121.631C27.2356 122.267 27.0106 122.521 26.5042 122.182C26.3073 122.055 26.0541 121.956 25.9275 121.956C25.59 121.956 25.6603 122.831 26.0541 123.41C26.2932 123.763 26.3495 123.947 26.237 124.059C25.9557 124.342 25.6322 124.229 24.957 123.636C24.1131 122.888 23.9724 123.156 24.5772 124.412C25.3649 126.05 24.9851 126.544 23.9302 125.259C23.663 124.921 23.3817 124.638 23.3113 124.638C23.1144 124.638 23.1707 125.372 23.3957 125.768C23.5786 126.106 23.6771 126.756 23.5364 126.756C23.5083 126.756 23.3254 126.685 23.1285 126.601C22.7487 126.417 22.594 126.121 22.2846 124.808C22.1017 124.102 21.9048 123.735 21.3422 123.071C20.9483 122.619 19.8794 121.208 18.9651 119.951L17.3194 117.65L17.6429 116.69C18.1774 115.109 18.7541 114.248 19.8653 113.359C21.2859 112.229 21.8626 111.608 22.0595 110.987C22.3549 110.027 22.8191 109.462 23.4379 109.279C24.1412 109.067 24.9148 108.206 25.9838 106.469C27.742 103.603 28.9235 101.966 31.1458 99.2977C34.1137 95.7401 34.7325 94.8931 36.6877 91.7873C39.0788 87.9897 39.8946 86.7897 40.5557 86.098C40.8932 85.7451 41.6809 84.5733 42.3279 83.4863C43.5094 81.4675 44.9863 79.1805 46.0553 77.7264C46.3788 77.2888 47.0539 76.1453 47.5322 75.1853C48.5308 73.2089 50.9079 68.9031 53.7069 64.0044C57.2233 57.8351 59.2487 54.0376 60.9085 50.4518C61.9775 48.1789 63.6934 43.986 63.6934 43.7037C63.6794 43.6049 63.3559 43.9013 62.948 44.339C62.2025 45.1578 62.104 45.3272 60.585 48.4612C59.8817 49.9435 59.5441 50.4659 58.8268 51.2C58.0954 51.9623 57.8844 52.3011 57.5749 53.1905C57.0264 54.7575 54.7478 59.3457 53.4678 61.4633C52.8489 62.4656 51.3721 64.8797 50.1905 66.8279C48.995 68.7619 47.7291 71.0489 47.3634 71.8819C46.646 73.5195 46.1397 74.31 45.7037 74.4512C45.5489 74.4936 45.4083 74.7194 45.352 74.9594C45.2395 75.5806 44.6347 76.7241 43.9877 77.5994C43.3125 78.4888 42.764 79.5476 42.6374 80.197C42.5811 80.4793 42.2576 80.9875 41.7794 81.5099C41.3433 81.9757 40.5275 83.091 39.9509 83.9804C37.7988 87.3121 37.3347 87.9615 36.5048 88.7944C35.8297 89.4861 35.5202 89.952 34.9998 91.0814C33.6214 94.1307 31.8491 96.7001 29.3595 99.2836C27.9811 100.738 27.1512 101.768 25.59 104.027C22.8613 107.994 21.2859 110.013 19.5277 111.777C17.3898 113.937 15.8285 114.883 14.0562 115.123L13.2967 115.222L13.367 114.587C13.4374 113.98 13.4233 113.937 12.7903 113.415C12.4246 113.104 11.8902 112.568 11.5948 112.215C10.99 111.495 9.99131 109.49 9.54121 108.093L9.23177 107.161L9.89285 106.116C11.2431 104.041 13.7187 101.401 17.2772 98.3095C19.6684 96.2201 22.2002 93.7213 22.2002 93.439C22.2002 93.3119 22.2986 93.0861 22.4112 92.9308C22.5237 92.7896 22.6221 92.4649 22.6221 92.239C22.6221 91.9002 22.7909 91.632 23.3395 91.1096C24.5491 89.9238 27.3622 86.705 29.6408 83.8957C33.537 79.1099 35.7734 76.4559 37.3628 74.7618C38.3896 73.6465 39.2898 72.503 40.0071 71.3736C41.8778 68.4372 44.6206 64.3432 48.1511 59.2045C54.1711 50.4518 57.0686 45.9766 59.6426 41.4732C61.3304 38.5368 63.7497 33.878 63.6512 33.7651C63.4965 33.6098 62.8495 33.878 62.3853 34.2874C61.8649 34.7392 61.6117 35.2474 61.1476 36.7862C60.7397 38.1697 60.5006 38.5085 59.2347 39.5391C57.378 41.0496 57.2092 41.2473 57.2374 42.1084C57.2655 42.7861 57.1952 42.9414 56.5622 43.9013C56.1684 44.4801 55.5214 45.5954 55.1135 46.386C54.2555 48.1083 53.3975 49.1247 52.5114 49.4918L51.8784 49.7459V50.6918V51.6376L51.2736 52.0047C50.922 52.2023 50.4437 52.3576 50.1484 52.3576C49.5717 52.3576 49.5154 52.4988 49.8389 53.0635C49.9514 53.2611 50.0358 53.5858 50.0499 53.7834C50.0499 54.1081 49.9796 54.1787 49.5717 54.2493C48.995 54.3623 48.7981 54.574 48.1792 55.8305C47.6728 56.8328 47.1243 57.4398 46.7164 57.4398C46.5757 57.4398 46.5335 57.5245 46.6038 57.6798C46.6601 57.821 46.7304 58.1457 46.7726 58.3857C46.843 58.8233 46.8148 58.8657 46.21 59.1198C45.4505 59.4445 45.2254 59.8115 45.2957 60.5598L45.352 61.1103H44.6206H43.8892L43.9595 61.7033C44.058 62.6491 43.6501 63.1715 42.5952 63.4679L41.7512 63.6938V64.5832C41.7512 65.5573 41.5121 65.882 41.0198 65.6138C40.7948 65.5008 40.7807 65.5291 40.8651 65.9102C40.9354 66.3055 40.8651 66.4184 40.0774 67.1525C39.2194 67.9572 39.2194 67.9572 39.2194 68.7337V69.5101L38.474 69.8631C37.7988 70.1878 37.7285 70.2584 37.63 70.8513C37.4613 71.6842 37.3628 71.7971 36.6173 71.9101C35.9141 72.0089 35.7031 72.263 35.7031 72.9971C35.7031 73.7453 35.5202 73.9147 34.9717 73.703C34.5638 73.5477 34.4794 73.5618 34.3246 73.7736C34.2262 73.9147 34.1699 74.1265 34.2121 74.2394C34.2403 74.3524 34.3387 74.6488 34.409 74.8888L34.5497 75.3406L33.2979 75.8629C32.6087 76.1453 32.0179 76.4417 31.9616 76.5123C31.9194 76.5829 32.032 76.9217 32.2008 77.2747C32.5946 78.0511 32.468 78.2488 31.7366 78.0229C30.8223 77.7405 30.4004 78.1782 30.9067 78.884C31.0755 79.1099 31.2021 79.4205 31.2021 79.5617C31.2021 80.2534 30.33 80.3946 29.8518 79.7734C29.683 79.5617 29.5002 79.4346 29.458 79.477C29.4017 79.5193 29.3033 79.957 29.2189 80.4369C29.0501 81.3969 28.8813 81.4816 28.1077 81.0863C27.7561 80.9028 27.6857 80.9028 27.6857 81.0581C27.6857 81.3969 28.1077 82.484 28.2765 82.5828C28.4031 82.6675 28.4031 82.7381 28.2624 82.9075C28.1077 83.091 28.0374 83.091 27.6576 82.851C27.1512 82.5404 26.8418 82.6251 26.8418 83.0628C26.8418 83.2463 26.6167 83.6698 26.3354 84.0086C25.7728 84.658 25.4352 85.3498 25.4352 85.8015C25.4352 86.1403 24.9851 86.3097 24.6054 86.1121C24.4507 86.0274 24.1693 85.9568 23.9724 85.9568C23.6911 85.9568 23.6067 86.0274 23.6067 86.2674C23.6208 86.4509 23.7052 86.7474 23.8177 86.945C24.2537 87.7074 23.874 88.3003 23.1988 87.9474C23.0441 87.8627 22.7487 87.7921 22.5518 87.7921C22.2424 87.7921 22.2002 87.8485 22.2564 88.0744C22.2986 88.2297 22.383 88.4838 22.4252 88.6532C22.6643 89.5003 22.0033 89.9661 21.5532 89.2744C21.2719 88.8509 21.1312 88.8367 20.9343 89.2179C20.8077 89.4297 20.8218 89.6555 20.9905 90.1497C21.1171 90.5167 21.2156 90.9543 21.2156 91.1379C21.2156 91.4484 21.1734 91.4626 20.2451 91.4626C19.6965 91.4626 19.2183 91.5332 19.1761 91.6037C19.1198 91.6884 19.2464 91.9426 19.4574 92.1967C20.1466 93.0155 19.5981 93.679 18.8244 92.9449C18.5994 92.7331 18.3181 92.592 18.1634 92.6202C17.9524 92.6625 17.9102 92.8037 17.9243 93.4813C17.9383 94.3566 17.7977 94.4978 17.3476 94.0037C17.0522 93.6649 16.6021 93.6366 16.4896 93.9331C16.4333 94.046 16.5036 94.399 16.6302 94.7095C16.7568 95.0201 16.8553 95.3166 16.8553 95.3589C16.8553 95.4436 16.4896 95.3872 15.6878 95.1895C15.3221 95.1048 15.3081 95.1189 15.3081 95.6695C15.3081 95.9801 15.4065 96.333 15.5191 96.446C15.7019 96.6295 15.7019 96.686 15.505 96.8413C15.3221 96.9824 15.2096 96.9824 14.8439 96.8271C14.5907 96.7283 14.211 96.6436 13.9718 96.6295C13.6061 96.6154 13.5499 96.6577 13.6061 96.9683C13.6202 97.166 13.7609 97.4765 13.9015 97.6883C14.0422 97.8859 14.211 98.2248 14.2672 98.4365L14.3516 98.8177L13.8171 98.5777C13.5077 98.4506 13.0998 98.3095 12.8747 98.2671C12.509 98.2106 12.495 98.2248 12.495 98.86C12.495 99.3965 12.4528 99.5094 12.2418 99.5094C12.1011 99.5094 11.8902 99.3541 11.7917 99.1565C11.5807 98.7612 11.2713 98.7471 11.0322 99.1142C10.9196 99.2977 10.9478 99.5236 11.1306 100.032C11.5666 101.246 11.2994 101.811 10.6946 100.964C10.5117 100.709 10.357 100.625 10.1742 100.681C9.97724 100.766 9.94911 100.879 10.0194 101.316C10.2164 102.389 10.1882 102.672 9.92098 102.728C9.31616 102.855 8.78167 101.966 8.57069 100.484C8.4441 99.5941 8.20499 98.9871 6.95316 96.4036C6.13736 94.7378 5.23716 92.9449 4.94179 92.4225L4.4073 91.4767L5.11057 90.7567C6.0389 89.7826 7.09381 89.0626 9.52715 87.665C15.4628 84.2627 25.2243 76.4417 34.6482 67.5478C40.2884 62.2115 43.4954 58.9645 43.9033 58.1316C44.4659 57.0163 45.4927 55.6893 46.7445 54.4752C47.3493 53.8964 48.1511 52.9505 48.5449 52.3576C48.9387 51.7788 50.0499 50.2824 51.0345 49.04C52.005 47.7977 53.1021 46.3719 53.4537 45.8636C54.0586 44.9884 55.3948 42.7155 55.3948 42.5461C55.3948 42.5037 55.0572 42.6449 54.6634 42.8425C53.6085 43.379 52.0331 45.0307 50.3734 47.346C49.5998 48.433 47.5884 50.9459 45.9006 52.9223C44.2127 54.8987 42.0185 57.5528 41.0058 58.8092C39.5992 60.588 39.0366 61.1668 38.5865 61.3927C38.2349 61.5621 37.5597 62.155 36.983 62.7903C36.4345 63.3973 35.7453 64.0326 35.4358 64.1738C35.0279 64.3856 34.6763 64.7526 34.1559 65.5291C33.3541 66.7431 32.257 67.8019 30.9067 68.6772C30.4004 69.0019 29.894 69.3831 29.7815 69.5243C29.669 69.6513 28.0936 71.0066 26.2792 72.5312C24.4647 74.0418 22.369 75.9053 21.6235 76.6535C20.7092 77.5852 19.8231 78.3052 18.8807 78.8982C17.1366 79.9993 15.941 80.8605 11.7214 84.051C6.99535 87.6368 4.4073 89.345 3.71809 89.345C3.43678 89.345 3.28206 89.232 3.09921 88.8932C2.97262 88.6532 2.71944 88.2862 2.53659 88.1026L2.21308 87.7638L2.35373 84.1357C2.50845 80.6064 2.7335 78.4746 3.11327 77.2041C3.29612 76.5688 3.31019 76.5688 5.11057 75.6512C6.12329 75.143 7.88148 74.2959 9.02079 73.7595C11.4823 72.6018 13.0295 71.6701 14.0703 70.7242C14.5345 70.3007 15.5191 69.6937 16.6443 69.1149C19.9638 67.4208 23.4098 65.2044 27.5451 62.1127C29.9081 60.348 38.8397 53.2046 41.1183 51.2423C43.1437 49.52 46.2381 46.4424 47.6166 44.8048C48.7277 43.4919 51.1048 40.0897 50.9923 39.9767C50.8938 39.8779 49.7686 40.3438 49.3326 40.6685C49.0934 40.852 48.5589 41.5155 48.137 42.1508C47.3353 43.3366 45.4786 45.1295 39.0085 50.8753C35.1264 54.3199 34.8451 54.5599 34.0152 54.8987C32.7915 55.4211 31.4834 56.3387 30.527 57.3551C29.8237 58.0751 29.5424 58.2869 29.2329 58.2869C29.0079 58.2869 28.7828 58.2163 28.7266 58.1316C28.6703 58.0328 28.5719 58.1033 28.4734 58.301C28.389 58.4704 27.9811 58.8233 27.5591 59.0633C26.6589 59.5998 26.4198 59.8821 26.4198 60.4468C26.4198 60.8562 26.4058 60.8562 25.8853 60.7998C25.4071 60.7292 25.3368 60.7574 25.1821 61.1103C25.0695 61.3503 24.7038 61.6609 24.1975 61.9291C23.3113 62.4091 22.9878 62.7056 22.8472 63.1856C22.7065 63.6232 22.2002 63.6091 21.6657 63.1573C21.1593 62.7338 20.9343 62.7056 21.0327 63.1009C21.1312 63.4538 20.8358 64.0467 20.5123 64.1456C20.0622 64.2867 19.5277 64.8938 19.5277 65.2749C19.5277 65.6843 19.4574 65.6985 18.7682 65.4161C18.3884 65.2467 18.1774 65.2326 17.9805 65.3455C17.657 65.5291 17.6429 65.5855 17.9102 66.0514C18.1774 66.5173 18.1774 67.0255 17.8961 67.1384C17.7695 67.1808 17.4601 67.1102 17.1929 66.9831C16.9256 66.8561 16.4755 66.7573 16.2083 66.7573H15.7019L15.8004 67.4631C15.8707 67.9431 15.8426 68.2396 15.73 68.3808C15.4487 68.7196 15.0549 68.6208 14.8158 68.169C14.4079 67.3784 13.8031 67.7455 13.6624 68.8466C13.5921 69.4819 13.5358 69.5948 13.2264 69.6796C12.9451 69.7501 12.7903 69.6796 12.5512 69.3972C12.3684 69.1854 12.1293 69.016 12.0167 69.016C11.8058 69.016 11.5526 69.6654 11.4823 70.3995L11.4401 70.7383L11.0603 70.4419C10.5961 70.0607 10.4133 70.0607 10.357 70.456C10.3148 70.7525 10.1179 70.9078 9.18957 71.303C8.852 71.4583 8.75354 71.5995 8.69728 72.0513C8.62695 72.5877 8.59882 72.616 8.14873 72.5877C7.82522 72.5736 7.52984 72.4183 7.16414 72.0654C6.88283 71.783 6.60152 71.5572 6.54526 71.5572C6.489 71.5572 6.4468 71.9383 6.4468 72.4183V73.2795L6.0389 73.1806C5.47628 73.0536 5.09651 73.2936 4.75894 73.9571C4.35104 74.7618 4.01346 74.903 3.64776 74.4371C3.2258 73.9006 3.26799 72.9407 3.77435 71.3877C4.01346 70.6678 4.23851 69.6654 4.29478 69.1572L4.37917 68.2396L6.15142 67.6184C9.72406 66.3902 12.8607 64.7526 17.0241 61.9433C19.7387 60.1221 20.7374 59.3457 22.4252 57.7363C24.2819 55.9575 25.2383 55.3505 29.0219 53.5858C31.6663 52.3294 32.9181 51.6659 33.7339 51.0588C34.4794 50.4941 35.478 49.4353 35.9141 48.7577C36.3641 48.0377 36.8846 46.866 36.7861 46.7671C36.758 46.7389 36.3923 46.9648 35.9703 47.2895C34.6341 48.2918 32.046 49.8871 27.5873 52.4423C21.314 56.0281 18.3603 58.061 16.1239 60.3056C15.4628 60.9692 15.0408 61.2656 14.4641 61.4633C14.0281 61.6186 13.4092 61.9856 13.0576 62.3103C12.706 62.6209 11.9183 63.2421 11.2994 63.6797C10.6805 64.1173 9.99131 64.6679 9.76626 64.9079C9.51308 65.1761 9.20364 65.3455 8.99266 65.3455C8.31751 65.3455 6.65778 65.7691 5.9967 66.0938L5.32156 66.4326L4.98398 65.9243C4.18225 64.7244 4.16819 63.5103 4.91366 62.0985C5.15277 61.6327 6.01077 60.4327 6.8125 59.4445C7.71269 58.3151 8.45817 57.214 8.79574 56.5081C9.24584 55.5763 9.45682 55.294 10.1601 54.7717C10.6243 54.4187 11.2853 53.727 11.637 53.2329C14.6329 49.0118 16.0254 47.3883 17.6289 46.2872C19.4293 45.0448 21.6798 44.0143 25.0977 42.8849L27.3341 42.1508L31.9054 42.052C35.8015 41.9531 36.6173 41.8967 37.4613 41.6708C41.0761 40.6544 45.127 38.5509 48.1089 36.1509C49.3326 35.1486 49.2341 35.3745 50.4015 30.8287C51.794 25.4076 52.4692 23.3324 53.4959 21.2995C53.8195 20.6642 53.8476 20.4525 53.8476 18.7019C53.8476 17.3325 53.721 15.9349 53.3975 13.6479C53.088 11.4033 52.9474 9.93507 52.9474 8.52333C52.9333 6.68808 52.9615 6.47632 53.3412 5.44576C53.6366 4.64107 53.932 4.13284 54.4383 3.56816L55.1416 2.80582L55.6198 3.15875C56.3231 3.69521 57.4906 4.20343 58.5877 4.42931C59.2065 4.57048 60.81 4.66931 63.1308 4.71165C66.9285 4.79636 68.0397 4.9093 69.3618 5.36105C70.1214 5.61517 70.248 5.62929 70.8528 5.43164C72.3015 4.97989 73.8487 4.7399 77.6183 4.42931C80.6283 4.1752 80.7408 4.14697 81.4863 3.72345C81.7958 3.53992 82.5553 3.29993 83.1742 3.17287C86.4655 2.52347 89.2786 2.42465 95.9035 2.73523C101.572 2.98935 102.444 2.97523 106.031 2.4529C108.83 2.04349 110.982 2.0576 113.19 2.52347ZM119.126 33.5533C119.688 33.9204 120.799 35.0498 120.799 35.2615C120.799 35.318 120.659 35.4168 120.49 35.4874C119.688 35.8403 120.11 36.5603 121.939 37.9015C123.781 39.2567 124.372 39.9767 124.667 41.2332C124.963 42.4472 125.047 42.6308 125.525 43.1249L125.891 43.4778L126.271 43.1249C126.693 42.7155 126.918 42.659 127.03 42.9555C127.073 43.0684 127.537 43.379 128.071 43.6613C129.351 44.339 130.842 45.4825 133.388 47.7412C136.117 50.1835 136.806 50.72 141.687 54.334C143.937 55.9858 147.186 58.4845 148.902 59.868C153.403 63.482 154.979 64.4985 162.574 68.7619C167.131 71.3172 169.143 72.5171 170.69 73.5618C171.618 74.183 171.773 74.2394 172.546 74.2394C173.334 74.2394 173.461 74.2818 174.206 74.8747C174.656 75.2135 175.43 75.8065 175.936 76.1735C177.723 77.5005 177.99 78.7852 177.272 82.6534C177.061 83.811 176.865 84.8415 176.836 84.9545C176.794 85.0957 176.611 85.1239 176.063 85.0533C174.938 84.898 174.248 84.5874 170.718 82.5687C165.05 79.3358 162.447 77.5711 160.141 75.3829C159.184 74.4794 158.833 74.2394 158.509 74.2394C158.27 74.2394 157.792 74.0842 157.426 73.8865C157.06 73.6889 156.681 73.5336 156.582 73.5336C156.484 73.5336 156.371 73.4065 156.315 73.2654C156.273 73.1101 155.949 72.7571 155.612 72.4748C155.26 72.1924 154.979 71.8395 154.979 71.6983C154.979 71.5148 154.669 71.2748 153.966 70.8936C152.602 70.1737 151.139 69.0725 149.338 67.3784C147.003 65.1761 145.92 64.2444 143.642 62.4797C139.999 59.6704 138.972 58.781 135.357 55.3505C130.055 50.3106 127.368 47.586 125.314 45.0872C122.515 41.7131 121.714 40.5838 120.856 38.8756C120.335 37.8591 119.829 37.0544 119.337 36.5462C118.169 35.318 117.185 33.751 117.339 33.3557C117.466 33.0028 118.422 33.1157 119.126 33.5533ZM122.769 36.2639C123.064 36.4192 123.809 36.9697 124.414 37.478C125.019 38.0003 125.765 38.5932 126.06 38.7909L126.623 39.1579L126.032 39.2003C125.23 39.2567 124.203 38.692 123.275 37.6615C122.572 36.8709 121.967 35.9815 122.136 35.9815C122.178 35.9815 122.459 36.1086 122.769 36.2639Z" fill="white"/>
</g>
</svg>
